<?xml version="1.0" encoding="utf-8"?>
<!-- Generator: Adobe Illustrator 28.0.0, SVG Export Plug-In . SVG Version: 6.00 Build 0)  -->
<svg version="1.1" id="Layer_1" xmlns="http://www.w3.org/2000/svg" xmlns:xlink="http://www.w3.org/1999/xlink" x="0px" y="0px"
	 viewBox="0 0 1138.7 879.1" style="enable-background:new 0 0 1138.7 879.1;" xml:space="preserve">
<style type="text/css">
	.st0{fill:#FFD6A7;}
	.st1{fill:#B54C04;stroke:#000000;stroke-width:13.9331;stroke-linejoin:round;stroke-miterlimit:9.9988;}
	.st2{fill:#FFCEBF;stroke:#000000;stroke-width:13.9331;stroke-linejoin:round;stroke-miterlimit:9.9988;}
	.st3{fill:#A04100;}
	.st4{fill:none;stroke:#000000;stroke-width:13.9331;stroke-linejoin:round;stroke-miterlimit:9.9988;}
	.st5{fill:#FFC639;}
	.st6{fill:#FCAD2F;}
	.st7{fill:#FFCEBF;}
	.st8{fill:#FFB8A1;}
	.st9{fill:#FFFFFF;}
	.st10{fill:#FFCC8C;}
	.st11{fill:#FCAD2F;stroke:#000000;stroke-width:13.9331;stroke-linejoin:round;stroke-miterlimit:9.9988;}
	.st12{fill:#F8D280;}
	.st13{fill:none;stroke:#000000;stroke-width:1.9341;stroke-linejoin:round;stroke-miterlimit:9.9988;}
	.st14{fill:#DBCDAA;stroke:#000000;stroke-width:13.9331;stroke-linejoin:round;stroke-miterlimit:9.9988;}
</style>
<g id="Слой-1">
	<g>
		<path class="st0" d="M569.4,110C265.5,110,19,349.2,19,644.5c0,80.3,18.3,156.4,51,224.7h998.9c32.6-68.3,51-144.4,51-224.7
			C1119.8,349.2,873.4,110,569.4,110z"/>
		<g>
			<path class="st1" d="M594.4,475.1c0,0-174.8,9.2-231.8,109.8c-22.1,38.9-28.2,113.6-28.2,113.6l-68.6-163.9l-121.3-8
				c-10.2,152.5,121.3,343.6,121.3,343.6l624.1-1.3c0,0,86.5-338.3-153.7-377.2L594.4,475.1z"/>
			<path class="st2" d="M140.1,438.5c-53.7,86.4,6,127.1,48.6,131.3c47.6,4.7,89.6-2.3,104.3-35.1c5.5-12.4,9.4-40.5,5.9-59.6
				c-10.6-58.4-63.6-67.7-63.6-67.7L140.1,438.5z"/>
			<path class="st3" d="M731.6,626L549.8,869.1l185.4-7.8L731.6,626z"/>
			<path class="st4" d="M730.9,620.1v243.3"/>
			<path class="st4" d="M463.9,620.1l4.8,245"/>
			<path class="st3" d="M507.1,522c0-63.2,54.7-114.5,122.3-114.5c67.5,0,122.3,51.3,122.3,114.5S697,636.5,629.4,636.5
				C561.8,636.4,507.1,585.2,507.1,522z"/>
			<path class="st5" d="M500.9,12.8c-49.8,42.6-78.7,96.8-81.2,148.5c-3.6,75.9,35.8,144.3,35.8,144.3s20.9-92.7,1.6,32.3
				c-10.6,68.1,10.1,109.5,41.2,151.6c26,35.2,56.5,77.2,109.5,81.7c86.9,7.4,146.7-79.1,157.1-146.9c8.5-55.1-11.7-94.9-13.3-135.3
				c-0.4-10.5,5.7,31.5,8.2,12.9c0.9-7,64.6-51.5,22-153.9c-33.4-80.6-166.4-62.9-189-78.6C570.2,53.8,560.4,7,560.4,7L530,49.2
				L500.9,12.8z"/>
			<path class="st6" d="M510,63.6c-49.8,42.6-88.1,109.3-90.5,161c-0.1,2.6,7.5,62.4,13.3,55.8c8.5,41.9,36.8,0.7,31.2,37.4
				c-7.7,49.6-14,65.6,0,100.4c21.3,53,79.3,103.8,149.7,103.8c90.1,0,150.5-72.2,151.4-139.8c0.4-27.3,3.4-2.9-6.6-40.6
				c-4.2-15.7,3.4-30.3,4.6-39.3c0.6-5,33.5-35.4,33.2-85.8c-2.8-7.4-2.2-10.1-5.3-17.6c-33.4-80.6-142.7-71.8-189.7-77
				C525.1,113.6,510,63.6,510,63.6z"/>
			<path class="st4" d="M561.9,7c0,0-21.2,12.3-29,44c-25.3-17-32-38.1-32-38.1s-71.7,68.4-81.1,148.5
				c-10.2,85.4,25.8,169.8,36.2,156.5c13.2-16.9,5.8-19.2,1.1,20.2c-14.9,125.7,89.3,233.3,156.5,233.3c41.2,0,177.7-43,144.9-229.7
				c-12.2-69.3-10.5,50.5,1.3-39.6c0.9-7,64.5-51.4,22-153.8C750.7,73.3,644.4,80.4,604.9,72C565.4,63.6,561.9,7,561.9,7z"/>
			<path class="st2" d="M706.6,317.8c0-24.3,20.2-44,45-44s45,19.7,45,44c0,24.3-20.2,44-45,44S706.6,342,706.6,317.8z"/>
			<path class="st2" d="M432.7,317.8c0-24.3,20.2-44,45-44c24.8,0,45,19.7,45,44c0,24.3-20.2,44-45,44
				C452.9,361.8,432.7,342,432.7,317.8z"/>
			<path class="st7" d="M549.2,168.8c-5.8-0.3-46.9,30.9-54.1,59.1C477.3,298,492.9,409,492.9,409c21.7,23.2,49,19.7,76.5,23.5
				c78.8,10.9,164.2-24,164.2-24c27.1-174.6-30.7-230.9-54.2-238.7c-23.4-7.8-35.7,26.8-68.2,26.6
				C578.6,196.1,569.5,169.8,549.2,168.8z"/>
			<path class="st8" d="M672.7,168.7c-18.5,1.4-31.4,27.8-59.9,27.7c-32.6-0.2-41.7-26.6-62-27.6c-4.1-0.2-25.3,15.1-40.2,34
				c89.6,67.4,163.6,28.6,202.3-4c-11.4-17.4-23.8-26.2-31.9-28.9C678.1,168.9,675.4,168.5,672.7,168.7z"/>
			<path class="st4" d="M549.2,168.8c-5.8-0.3-46.9,30.9-54.1,59.1C477.3,298,492.9,409,492.9,409c21.8,23.2,64.2-5.2,91.7-1.4
				c78.7,10.8,148.9,0.9,148.9,0.9c27.1-174.5-30.7-230.9-54.2-238.6c-23.4-7.8-35.7,26.8-68.2,26.6
				C578.6,196.1,569.5,169.8,549.2,168.8z"/>
			<path class="st2" d="M565.3,432.4c0-17,22.9-30.8,51.2-30.8c28.2,0,51.2,13.8,51.2,30.8s-22.9,30.8-51.2,30.8
				C588.2,463.2,565.3,449.5,565.3,432.4z"/>
			<path d="M525.7,326.6c0-15,13.2-27,29.5-27s29.5,12.1,29.5,27c0,15-17.6-11.6-33.8-11.6C534.5,315,525.7,341.6,525.7,326.6z"/>
			<path d="M650.6,326.6c0-15,13.2-27,29.5-27s29.5,12.1,29.5,27c0,15-17.6-11.6-33.8-11.6S650.6,341.6,650.6,326.6z"/>
			<path d="M517.5,267.7c-2.1-7.4,13-18.2,33.8-24.2c20.7-5.9,39.3-4.8,41.4,2.6c2.1,7.4-13,18.2-33.8,24.2
				C538.1,276.3,519.5,275.1,517.5,267.7z"/>
			<path d="M650.6,253.4c2-7.4,20.5-8.9,41.4-3.3c20.8,5.6,36.1,16.2,34.2,23.6c-2,7.4-20.5,8.9-41.4,3.3S648.6,260.9,650.6,253.4z"
				/>
			<path class="st8" d="M507.1,346.6c0-2.8,8.3-5,18.6-5s18.6,2.2,18.6,5c0,2.8-8.3,5-18.6,5C515.4,351.7,507.1,349.4,507.1,346.6z"
				/>
			<path class="st8" d="M688,346.6c0-2.8,8.3-5,18.6-5c10.2,0,18.6,2.2,18.6,5c0,2.8-8.3,5-18.6,5C696.4,351.7,688,349.4,688,346.6z
				"/>
			<path d="M584.6,485.5h8.5v84.6h-8.5V485.5z"/>
			<path d="M609.4,511.8h8.5v60.2h-8.5V511.8z"/>
			<path d="M634,486.6h8.5v84.6H634V486.6z"/>
			<path class="st9" d="M17.9,282.5c-0.4-11.3,8.5-20.8,19.8-21.2l150.4-5.3c11.3-0.4,20.8,8.5,21.2,19.8l11,310.4
				c0.4,11.3-8.5,20.8-19.8,21.2l-150.4,5.3c-11.3,0.4-20.8-8.5-21.2-19.8L17.9,282.5z"/>
			<path class="st10" d="M212.8,347.4c-23.3,20.5-54,38.2-92.7,38.2c-36.7,0-61.8-29.4-98.6-32.7l6,170.9
				c51.2-11.4,127.5-20.3,191.7,4.3L212.8,347.4z"/>
			<path class="st4" d="M17.9,282.5c-0.4-11.3,8.5-20.8,19.8-21.2l150.4-5.3c11.3-0.4,20.8,8.5,21.2,19.8l11,310.4
				c0.4,11.3-8.5,20.8-19.8,21.2l-150.4,5.3c-11.3,0.4-20.8-8.5-21.2-19.8L17.9,282.5z"/>
			<path class="st7" d="M190.5,418.3c5.1-22.8,20-34.8,59.6-19c25.4,10.2,47.3,60.9,42.2,83.7c-5.1,22.8-8.2,51.8-26.5,51.8
				c-13.7,0-45.4-58.4-47.6-73.9C215.8,445.2,184.3,445.9,190.5,418.3z"/>
			<path class="st4" d="M275.1,511.5c-41.4,26.6-55.6-41.7-57-50.8c-2.3-15.7-33.8-15-27.7-42.5c5.1-22.8,23-41,59.6-19
				c32.7,19.7,50.2,64.1,50.2,100.2"/>
			<path class="st11" d="M580.2,362c-3,0.2-6,0.7-9.1,1.4c-46.2,11.4-102.1,31.8-102.1,31.8s32.8,70.2,97.7,37.4
				c12.1-6.1,44.6-25,44.6-25s26.3,18.8,38.3,25c65,32.8,108.9-37.4,108.9-37.4s-56-20.4-102.1-31.8c-17.9-4.4-33.2,1.1-42.6,11.4
				C605.8,366.4,594.1,361.2,580.2,362z"/>
			<path d="M81.2,270c-0.2-6.5,4.9-11.9,11.4-12.1l54.5-1.8c6.5-0.2,11.9,4.9,12.1,11.4l0,0c0.2,6.5-4.9,11.9-11.4,12.1l-54.5,1.8
				C86.8,281.5,81.3,276.5,81.2,270L81.2,270z"/>
		</g>
		<g>
			<path class="st6" d="M885.1,415.6c0,0,1.9,28.8-8.2,71.9c-8.5,35.9-7,53.4-7,53.4s-23.7,39.7-28.7,64.2c-6.1,29.8-2.5,74.2-3,106
				c-1.4,70.7,0.7,76.4,0,106.5c-0.7,30.1,1,44.3,20.7,46.8c16.5,2.1,83,2.6,102.8,0c19.8-2.6,21.4-16.7,20.7-46.8
				c-0.7-30.1,1.4-35.8,0-106.5c-0.6-31.8,3-76.2-3-106c-5-24.6-28.8-64.2-28.8-64.2s1.5-17.4-7-53.4c-10.2-43.1-8.3-71.9-8.3-71.9
				H885.1z"/>
			<path class="st12" d="M910.7,626.1c-18.7,0-34.6,9.8-41,23.6l-31.8,0.4l0.2,151.9l35,0.8c7.7,10.7,21.5,17.9,37.6,17.9
				c15.3,0,28.7-6.5,36.6-16.3l34.7,0.8l1.6-157.1l-32.4,0.4C944.6,635.4,928.9,626.1,910.7,626.1z"/>
			<path class="st4" d="M885.1,415.6c0,0,1.9,28.8-8.2,71.9c-8.5,35.9-7,53.4-7,53.4s-23.7,39.7-28.7,64.2c-6.1,29.8-2.5,74.2-3,106
				c-1.4,70.7,0.7,76.4,0,106.5c-0.7,30.1,1,44.3,20.7,46.8c16.5,2.1,83,2.6,102.8,0c19.8-2.6,21.4-16.7,20.7-46.8
				c-0.7-30.1,1.4-35.8,0-106.5c-0.6-31.8,3-76.2-3-106c-5-24.6-28.8-64.2-28.8-64.2s1.5-17.4-7-53.4c-10.2-43.1-8.3-71.9-8.3-71.9
				H885.1z"/>
			<path class="st13" d="M878.6,418.1c0-4,3.2-7.2,7.2-7.2h48.6c4,0,7.2,3.2,7.2,7.2l0,0c0,4-3.2,7.2-7.2,7.2h-48.6
				C881.8,425.3,878.6,422.1,878.6,418.1L878.6,418.1z"/>
			<path class="st14" d="M885.3,391.1h49.8V420h-49.8V391.1z"/>
			<path class="st9" d="M901.4,425.3h8.7c-1.6,83.3-8.9,125.8-8.9,125.8l-17.1-1.4C894.9,503.9,901.4,425.3,901.4,425.3z"/>
			<path class="st9" d="M881.4,559.6l9.8,3.8c-18.7,24.6-18.7,49.4-18.7,49.4h-14.9C857.6,588.6,881.4,559.6,881.4,559.6z"/>
			<path d="M865.7,420c0-7,5.6-12.6,12.6-12.6H942c7,0,12.6,5.6,12.6,12.6l0,0c0,7-5.6,12.6-12.6,12.6h-63.8
				C871.3,432.5,865.7,426.8,865.7,420L865.7,420z"/>
		</g>
		<path d="M0,861.7h1138.7v17.4H0V861.7z"/>
	</g>
</g>
</svg>
