<?xml version="1.0" encoding="utf-8"?>
<!-- Generator: Adobe Illustrator 28.0.0, SVG Export Plug-In . SVG Version: 6.00 Build 0)  -->
<svg version="1.1" id="Layer_1" xmlns="http://www.w3.org/2000/svg" xmlns:xlink="http://www.w3.org/1999/xlink" x="0px" y="0px"
	 viewBox="0 0 1138.7 879.1" style="enable-background:new 0 0 1138.7 879.1;" xml:space="preserve">
<style type="text/css">
	.st0{fill:#FFD6A7;}
	.st1{fill:#2E255A;stroke:#000000;stroke-width:13.9331;stroke-linejoin:round;stroke-miterlimit:9.9988;}
	.st2{fill:#FFCEBF;stroke:#000000;stroke-width:13.9331;stroke-linejoin:round;stroke-miterlimit:9.9988;}
	.st3{fill:#B52821;}
	.st4{fill:#FFC639;}
	.st5{fill:#FCAD2F;}
	.st6{fill:none;stroke:#000000;stroke-width:13.9331;stroke-linejoin:round;stroke-miterlimit:9.9988;}
	.st7{fill:#FFCEBF;}
	.st8{fill:#FFB8A1;}
	.st9{fill:#FFFFFF;}
	.st10{fill:#FFCC8C;}
	.st11{fill:#FCAD2F;stroke:#000000;stroke-width:13.9331;stroke-linejoin:round;stroke-miterlimit:9.9988;}
	.st12{fill:none;stroke:#FFFFFF;stroke-width:7.4325;stroke-linejoin:round;stroke-miterlimit:9.9988;}
	.st13{fill:#2E255A;}
	.st14{fill:#F8D280;}
	.st15{fill:none;stroke:#000000;stroke-width:1.9341;stroke-linejoin:round;stroke-miterlimit:9.9988;}
	.st16{fill:#DBCDAA;stroke:#000000;stroke-width:13.9331;stroke-linejoin:round;stroke-miterlimit:9.9988;}
	.beer{fill:#FCAD2F;}
</style>
<g id="Слой-1">
	<g>
		<path class="st0" d="M569.4,110C265.5,110,19,349.2,19,644.5c0,80.3,18.3,156.4,51,224.7h998.9c32.6-68.3,51-144.4,51-224.7
			C1119.8,349.2,873.4,110,569.4,110z"/>
		<path class="st1" d="M594.4,475.1c0,0-174.8,9.2-231.8,109.8c-22.1,38.9-28.2,113.6-28.2,113.6l-68.6-163.9l-121.3-8
			c-10.2,152.5,121.3,343.6,121.3,343.6l624.1-1.3c0,0,86.5-338.3-153.7-377.2L594.4,475.1z"/>
		<path class="st2" d="M140.1,438.5c-53.7,86.4,6,127.1,48.6,131.3c47.6,4.7,89.6-2.3,104.3-35.1c5.5-12.4,9.4-40.5,5.9-59.6
			c-10.6-58.4-63.6-67.7-63.6-67.7L140.1,438.5z"/>
		<path class="st3" d="M495.3,502.1c0-52.2,55.5-94.5,124.2-94.5c68.5,0,124.2,42.3,124.2,94.5c0,52.2-55.5,94.5-124.2,94.5
			C550.9,596.6,495.3,554.3,495.3,502.1z"/>
		<path class="st4" d="M500.9,12.8c-49.8,42.6-78.7,96.8-81.2,148.5c-3.6,75.9,35.8,144.3,35.8,144.3s20.9-92.7,1.6,32.3
			c-10.6,68.1,10.1,109.5,41.2,151.6c26,35.2,56.5,77.2,109.5,81.7c86.9,7.4,146.7-79.1,157.1-146.9c8.5-55.1-11.7-94.9-13.3-135.3
			c-0.4-10.5,5.7,31.5,8.2,12.9c0.9-7,64.6-51.5,22-153.9c-33.4-80.5-166.4-62.9-189-78.6C570.2,53.8,560.4,7,560.4,7L530,49.2
			L500.9,12.8z"/>
		<path class="st5" d="M510,63.6c-49.8,42.6-88.1,109.3-90.5,161c-0.1,2.6,7.5,62.4,13.3,55.8c8.5,41.9,36.8,0.7,31.2,37.4
			c-7.7,49.6-14,65.6,0,100.4c21.3,53,79.3,103.8,149.7,103.8c90.1,0,150.5-72.2,151.4-139.8c0.4-27.3,3.4-2.9-6.6-40.6
			c-4.2-15.7,3.4-30.3,4.6-39.3c0.6-5,33.5-35.4,33.2-85.8c-2.8-7.4-2.2-10.1-5.3-17.6c-33.4-80.5-142.7-71.8-189.7-77
			C525.1,113.6,510,63.6,510,63.6z"/>
		<path class="st6" d="M561.9,7c0,0-21.2,12.3-29,44c-25.3-17-32-38.1-32-38.1s-71.7,68.4-81.1,148.5
			c-10.2,85.4,25.8,169.8,36.2,156.5c13.2-16.9,5.8-19.2,1.1,20.2c-14.9,125.7,89.3,233.3,156.5,233.3c41.2,0,177.7-43,144.9-229.7
			c-12.2-69.3-10.5,50.5,1.3-39.6c0.9-7,64.5-51.4,22-153.8C750.7,73.3,644.4,80.4,604.9,72C565.4,63.6,561.9,7,561.9,7z"/>
		<path class="st2" d="M706.6,317.8c0-24.3,20.2-44,45-44c24.8,0,45,19.7,45,44c0,24.3-20.2,44-45,44
			C726.8,361.8,706.6,342,706.6,317.8z"/>
		<path class="st2" d="M432.7,317.8c0-24.3,20.2-44,45-44c24.8,0,45,19.7,45,44c0,24.3-20.2,44-45,44
			C452.9,361.8,432.7,342,432.7,317.8z"/>
		<path class="st7" d="M549.2,168.8c-5.8-0.3-46.9,30.9-54.1,59.1C477.3,298,492.9,409,492.9,409c21.7,23.2,49,19.7,76.5,23.5
			c78.8,10.9,164.2-24,164.2-24c27.1-174.6-30.7-230.9-54.2-238.7c-23.4-7.8-35.7,26.8-68.2,26.6
			C578.6,196.1,569.5,169.8,549.2,168.8z"/>
		<path class="st8" d="M672.7,168.7c-18.5,1.4-31.4,27.8-59.9,27.7c-32.6-0.2-41.7-26.6-62-27.6c-4.1-0.2-25.3,15.1-40.2,34
			c89.6,67.4,163.6,28.6,202.3-4c-11.4-17.4-23.8-26.2-31.9-28.9C678.1,168.9,675.4,168.5,672.7,168.7z"/>
		<path class="st6" d="M549.2,168.8c-5.8-0.3-46.9,30.9-54.1,59.1C477.3,298,492.9,409,492.9,409c21.8,23.2,64.2-5.2,91.7-1.4
			c78.7,10.8,148.9,0.9,148.9,0.9c27.1-174.5-30.7-230.9-54.2-238.6c-23.4-7.8-35.7,26.8-68.2,26.6
			C578.6,196.1,569.5,169.8,549.2,168.8z"/>
		<path class="st2" d="M565.3,432.4c0-17,22.9-30.8,51.2-30.8c28.2,0,51.2,13.8,51.2,30.8c0,17-22.9,30.8-51.2,30.8
			C588.2,463.2,565.3,449.5,565.3,432.4z"/>
		<path d="M525.7,326.6c0-15,13.2-27,29.5-27c16.3,0,29.5,12.1,29.5,27c0,15-17.6-11.6-33.8-11.6C534.5,315,525.7,341.6,525.7,326.6
			z"/>
		<path d="M650.6,326.6c0-15,13.2-27,29.5-27c16.3,0,29.5,12.1,29.5,27c0,15-17.6-11.6-33.8-11.6C659.5,315,650.6,341.6,650.6,326.6
			z"/>
		<path d="M517.5,267.7c-2.1-7.4,13-18.2,33.8-24.2c20.7-5.9,39.3-4.8,41.4,2.6c2.1,7.4-13,18.2-33.8,24.2
			C538.1,276.3,519.5,275.1,517.5,267.7z"/>
		<path d="M650.6,253.4c2-7.4,20.5-8.9,41.4-3.3c20.8,5.6,36.1,16.2,34.2,23.6c-2,7.4-20.5,8.9-41.4,3.3
			C663.9,271.4,648.6,260.9,650.6,253.4z"/>
		<path class="st8" d="M507.1,346.6c0-2.8,8.3-5,18.6-5s18.6,2.2,18.6,5s-8.3,5-18.6,5C515.4,351.7,507.1,349.4,507.1,346.6z"/>
		<path class="st8" d="M688,346.6c0-2.8,8.3-5,18.6-5c10.2,0,18.6,2.2,18.6,5s-8.3,5-18.6,5C696.4,351.7,688,349.4,688,346.6z"/>
		<path d="M584.6,485.5h8.5v84.6h-8.5V485.5z"/>
		<path d="M609.4,511.8h8.5v60.2h-8.5V511.8z"/>
		<path d="M634,486.6h8.5v84.6H634V486.6z"/>
		<path class="st9" d="M17.9,282.5c-0.4-11.3,8.5-20.8,19.8-21.2l150.4-5.3c11.3-0.4,20.8,8.5,21.2,19.8l11,310.4
			c0.4,11.3-8.5,20.8-19.8,21.2l-150.4,5.3c-11.3,0.4-20.8-8.5-21.2-19.8L17.9,282.5z"/>
		<path class="st10" d="M212.8,347.4c-23.3,20.5-54,38.2-92.7,38.2c-36.7,0-61.8-29.4-98.6-32.7l6,170.9
			c51.2-11.4,127.5-20.3,191.7,4.3L212.8,347.4z"/>
		<path class="st6" d="M17.9,282.5c-0.4-11.3,8.5-20.8,19.8-21.2l150.4-5.3c11.3-0.4,20.8,8.5,21.2,19.8l11,310.4
			c0.4,11.3-8.5,20.8-19.8,21.2l-150.4,5.3c-11.3,0.4-20.8-8.5-21.2-19.8L17.9,282.5z"/>
		<path class="st7" d="M190.5,418.3c5.1-22.8,20-34.8,59.6-19c25.4,10.2,47.3,60.9,42.2,83.7c-5.1,22.8-8.2,51.8-26.5,51.8
			c-13.7,0-45.4-58.4-47.6-73.9C215.8,445.2,184.3,445.9,190.5,418.3z"/>
		<path class="st6" d="M275.1,511.5c-41.4,26.6-55.6-41.7-57-50.8c-2.3-15.7-33.8-15-27.7-42.5c5.1-22.8,23-41,59.6-19
			c32.7,19.7,50.2,64.1,50.2,100.2"/>
		<path class="st11" d="M580.2,362c-3,0.2-6,0.7-9.1,1.4c-46.2,11.4-102.1,31.8-102.1,31.8s32.8,70.2,97.7,37.4
			c12.1-6.1,44.6-25,44.6-25s26.3,18.8,38.3,25c65,32.8,108.9-37.4,108.9-37.4s-56-20.4-102.1-31.8c-17.9-4.4-33.2,1.1-42.6,11.4
			C605.8,366.4,594.1,361.2,580.2,362z"/>
		<path d="M81.2,270c-0.2-6.5,4.9-11.9,11.4-12.1l54.5-1.8c6.5-0.2,11.9,4.9,12.1,11.4l0,0c0.2,6.5-4.9,11.9-11.4,12.1l-54.5,1.8
			C86.8,281.5,81.4,276.5,81.2,270L81.2,270z"/>
		<path d="M0,861.7h1138.7v17.4H0V861.7z"/>
		<g>
			<g>
				<g>
					<path class="st9" d="M488.1,513.4l-3.7-1.7l-4.8,10.5l-13.2-5.5l-1.7,4l13.1,5.5l-6.1,13.5l3.7,1.7l6.2-13.6l10.1,4.2l1.7-4
						l-10-4.2L488.1,513.4z"/>
					<path class="st9" d="M500.4,542.6l-4-1.1l-3,11.1l-13.9-3.3l-1,4.2l13.8,3.3l-3.8,14.3l4,1.1l3.9-14.5l10.6,2.5l1-4.2
						l-10.5-2.5L500.4,542.6z"/>
					<path class="st9" d="M522,570.8l-4.1-0.2l-0.5,11.5l-14.3-0.2l-0.1,4.3l14.2,0.2l-0.7,14.8l4.1,0.2l0.7-14.9l10.9,0.2l0.1-4.3
						l-10.8-0.2L522,570.8z"/>
					<path class="st9" d="M549.6,591.2l-3.8,1.5l4.2,10.7l-13.1,5.6l1.7,4l13-5.6l5.4,13.8l3.8-1.5l-5.5-13.9l10.1-4.3l-1.7-4
						l-10,4.3L549.6,591.2z"/>
					<path class="st9" d="M582.4,602.5l-3.2,2.6l7.2,9l-10.9,9.3l2.8,3.3l10.8-9.2l9.3,11.6l3.2-2.6l-9.4-11.7l8.3-7.1l-2.8-3.3
						l-8.2,7L582.4,602.5z"/>
				</g>
				<g>
					<path class="st9" d="M752.1,510.3l3.7-1.8l5.2,10.2l12.9-6.1l1.8,3.9l-12.8,6l6.7,13.2l-3.7,1.9l-6.8-13.3l-9.9,4.7l-1.8-3.9
						l9.8-4.6L752.1,510.3z"/>
					<path class="st9" d="M741.1,540.1l3.9-1.2l3.4,11l13.7-3.9l1.2,4.1l-13.6,3.8l4.4,14.2l-3.9,1.2l-4.5-14.3l-10.5,3l-1.2-4.1
						l10.4-2.9L741.1,540.1z"/>
					<path class="st9" d="M720.7,569.2l4.1-0.4l1,11.4l14.3-0.8l0.3,4.3l-14.2,0.8l1.3,14.8l-4.1,0.4l-1.3-14.9l-10.9,0.6l-0.3-4.3
						l10.8-0.6L720.7,569.2z"/>
					<path class="st9" d="M694,590.7l3.9,1.3l-3.8,10.9l13.4,5.1l-1.5,4l-13.3-5l-4.9,14l-3.9-1.3l4.9-14.1l-10.2-3.9l1.5-4
						l10.1,3.8L694,590.7z"/>
					<path class="st9" d="M661.6,603.3l3.3,2.4l-6.8,9.3l11.3,8.8l-2.6,3.4l-11.2-8.7l-8.8,12l-3.3-2.4l8.9-12l-8.6-6.7l2.6-3.4
						l8.5,6.7L661.6,603.3z"/>
					<path class="st9" d="M630.8,608.2l2.7,3.1L625,619l9.2,10.9l-3.3,2.8l-9.1-10.8l-11.1,9.9l-2.7-3.1l11.2-10l-7.1-8.4l3.3-2.8
						l7,8.3L630.8,608.2z"/>
				</g>
			</g>
			<g>
				<g>
					<path class="st9" d="M412.5,659.3l-5.6-1.6l-7.2,10.1l-19.8-5.4l-2.5,3.8l19.7,5.3l-9.3,13.1l5.6,1.6l9.3-13.2l15.2,4.1
						l2.5-3.8l-15.1-4.1L412.5,659.3z"/>
					<path class="st9" d="M380.1,622.6l-4.8,0.6l-1.8,11.9l-16.7,2.7l-0.5,4.4l16.6-2.7l-2.3,15.4l4.8-0.6l2.3-15.5l12.8-2l0.5-4.4
						l-12.7,2L380.1,622.6z"/>
					<path class="st9" d="M431.1,687.6l-6-1l-4.5,10.7l-20.9-3.2l-1.5,4l20.8,3.2l-5.8,13.9l6,1l5.8-14l16,2.4l1.5-4l-15.9-2.4
						L431.1,687.6z"/>
					<path class="st9" d="M463.6,714.9l-6.2-0.2l-0.8,11.1l-21.5-0.2l-0.1,4.2l21.4,0.2l-1,14.3l6.2,0.2l1-14.4l16.5,0.2l0.1-4.2
						l-16.3-0.2L463.6,714.9z"/>
					<path class="st9" d="M505.2,734.6l-5.8,1.5l6.3,10.3l-19.8,5.4l2.5,3.8l19.6-5.4l8.2,13.3l5.8-1.5l-8.3-13.5l15.2-4.2l-2.5-3.8
						l-15,4.1L505.2,734.6z"/>
					<path class="st9" d="M554.8,745.4l-4.8,2.5l10.8,8.7l-16.4,8.9l4.2,3.2l16.3-8.9l14,11.2l4.8-2.5l-14.1-11.3l12.6-6.9l-4.2-3.2
						l-12.4,6.8L554.8,745.4z"/>
				</g>
				<g>
					<path class="st9" d="M810.6,656.4l5.5-1.8l7.8,9.9l19.5-5.9l2.8,3.8l-19.3,5.8L837,681l-5.5,1.8l-10.2-12.9l-14.9,4.5l-2.8-3.8
						l14.8-4.5L810.6,656.4z"/>
					<path class="st9" d="M793.9,685.1l5.9-1.2l5.2,10.6l20.7-3.8l1.8,4l-20.6,3.7l6.7,13.7l-5.9,1.2l-6.7-13.8l-15.9,2.9l-1.8-4
						l15.7-2.8L793.9,685.1z"/>
					<path class="st9" d="M763.2,713.2l6.2-0.3l1.5,11.1l21.5-0.8l0.4,4.2l-21.3,0.8l1.9,14.3l-6.2,0.3l-2-14.4l-16.5,0.6l-0.4-4.2
						l16.3-0.6L763.2,713.2z"/>
					<path class="st9" d="M723,734l5.8,1.3l-5.7,10.5l20.1,4.9l-2.3,3.9l-20-4.9l-7.3,13.6l-5.9-1.3l7.4-13.7l-15.4-3.7l2.3-3.9
						l15.3,3.7L723,734z"/>
					<path class="st9" d="M674.1,746.2l5,2.4l-10.3,8.9l17,8.5l-4,3.3l-16.8-8.4l-13.3,11.6l-5-2.4l13.4-11.6l-13-6.5l4-3.3
						l12.9,6.4L674.1,746.2z"/>
					<path class="st9" d="M627.7,751l4.1,3l-12.9,7.4l13.9,10.5l-4.9,2.7l-13.8-10.5l-16.7,9.6l-4.1-3l16.8-9.6l-10.6-8.1l4.9-2.7
						l10.5,8L627.7,751z"/>
				</g>
			</g>
			<path class="st9" d="M421.3,534.7c0,0,2.2-1.6,4.7-3.2c2.5-1.6,5.3-3,5.3-3S509.6,655,620.3,655c110.7,0,177.3-135.8,177.3-135.8
				l9,5.2c0,0-74,141.2-187,141.2S421.3,534.7,421.3,534.7z"/>
			<path class="st9" d="M365.9,593.7c0,0,1-2,2.2-4.4c1.3-2.3,2.8-4.7,2.8-4.7s103.4,148.6,250.3,148.6s235.3-163,235.3-163
				l11.9,6.3c0,0-98.2,169.5-248.2,169.5S365.9,593.7,365.9,593.7z"/>
			<g>
				<path class="st9" d="M613.5,658.1c-1.9-0.1-3.8,0.6-5.3,1.8L568.8,694c-3,2.6-3.1,6.9-0.4,9.7l36.7,36.7
					c2.8,2.8,7.4,2.9,10.3,0.3l39.4-34.1c3-2.6,3.1-6.9,0.4-9.7l-36.6-36.7C617.2,658.9,615.4,658.1,613.5,658.1z M613.4,660.2
					c1.3,0,2.5,0.6,3.5,1.5l36.7,36.7c1.9,1.9,1.8,4.9-0.2,6.6l-39.4,34.1c-2,1.8-5.2,1.7-7.1-0.2l-36.7-36.7
					c-1.9-1.9-1.8-4.9,0.2-6.6l39.4-34.1C610.7,660.6,612.1,660.2,613.4,660.2z"/>
				<path class="st9" d="M610.7,729.2l-29.9-29.9l32.1-27.8l29.9,29.9L610.7,729.2z"/>
			</g>
			<g>
				<path class="st9" d="M524.7,626.9c-1.5-0.8-3.2-1-4.9-0.5l-45.8,14.4c-3.5,1.1-5.5,4.8-4.6,8.3l12.2,46.6
					c0.9,3.5,4.4,5.5,7.9,4.4l45.8-14.3c3.5-1.1,5.5-4.8,4.6-8.3l-12.2-46.6C527.3,629.1,526.2,627.7,524.7,626.9z M523.7,628.7
					c1,0.6,1.7,1.5,2,2.7L538,678c0.6,2.4-0.8,5-3.1,5.7L489.1,698c-2.4,0.7-4.8-0.6-5.4-3l-12.2-46.6c-0.6-2.4,0.8-5,3.1-5.7
					l45.8-14.3C521.5,628,522.7,628.2,523.7,628.7z"/>
				<path class="st9" d="M491,688.1L481,650l37.5-11.7l10,38.1L491,688.1z"/>
			</g>
			<g>
				<path class="st9" d="M444.1,557.7c-1.4-0.9-3.1-1.3-4.8-0.9l-46.8,10.7c-3.5,0.8-5.9,4.3-5.2,7.9l8.6,47.4c0.6,3.6,4,5.8,7.5,5
					l46.8-10.7c3.5-0.8,5.9-4.4,5.2-7.9l-8.5-47.4C446.5,560.1,445.5,558.6,444.1,557.7z M443,559.5c1,0.6,1.6,1.6,1.8,2.8l8.6,47.3
					c0.4,2.4-1.2,4.9-3.6,5.4L403,625.8c-2.4,0.6-4.7-1-5.2-3.4l-8.6-47.4c-0.4-2.5,1.2-4.9,3.6-5.4l46.8-10.7
					C440.8,558.6,442,558.8,443,559.5z"/>
				<path class="st9" d="M406.1,615.4l-6.8-37.6l37.1-8.5l6.8,37.6L406.1,615.4z"/>
			</g>
			<g>
				<g>
					<path class="st9" d="M777.3,557.9c-1.3,1.1-2,2.7-2.1,4.5l-1.2,48c-0.1,3.6,2.8,6.8,6.4,7l48,3.5c3.6,0.3,6.6-2.4,6.7-6l1.2-48
						c0.1-3.6-2.8-6.7-6.4-7l-48-3.5C780.3,556.2,778.6,556.8,777.3,557.9z M778.8,559.5c0.9-0.8,2-1.1,3.2-1l48,3.5
						c2.5,0.2,4.5,2.3,4.4,4.8l-1.2,48c-0.1,2.5-2.1,4.3-4.6,4.2l-48-3.5c-2.5-0.2-4.5-2.3-4.4-4.8l1.2-48
						C777.4,561.4,777.9,560.2,778.8,559.5z"/>
					<path class="st9" d="M823.1,608.2l-36.6-2.7l0.9-36.6l36.6,2.7L823.1,608.2z"/>
					<path class="st9" d="M421.3,648.6l47.5-15.9"/>
				</g>
				<g>
					<path class="st9" d="M708.3,629.1c-1.4,1-2.4,2.4-2.6,4.2l-7.4,47.4c-0.6,3.6,1.9,7.1,5.4,7.8l47.2,9.7
						c3.5,0.7,6.9-1.6,7.4-5.1l7.4-47.4c0.6-3.6-1.9-7.1-5.4-7.8l-47.1-9.7C711.4,627.8,709.7,628.2,708.3,629.1z M709.5,630.9
						c0.9-0.7,2.1-0.9,3.3-0.6l47.1,9.7c2.4,0.5,4.1,2.9,3.7,5.3l-7.4,47.4c-0.4,2.4-2.7,4-5.1,3.5l-47.2-9.7
						c-2.4-0.5-4.1-2.9-3.7-5.3l7.4-47.4C707.9,632.6,708.6,631.5,709.5,630.9z"/>
					<path class="st9" d="M747.8,685.9l-37.5-7.7l5.9-37.6l37.5,7.7L747.8,685.9z"/>
				</g>
			</g>
			<path class="st12" d="M477.7,592.4l-13.8,40.3l-43.6,13.2"/>
			<path class="st12" d="M560.1,647.8l-2.6,42.5L519,714.6"/>
			<path class="st12" d="M665.5,652.8l2.6,42.5l38.5,24.3"/>
			<path class="st12" d="M758.5,587.9l6.7,42l40.7,20.4"/>
			<g>
				<path class="st13" d="M369.9,595.7c0-1.9,1.6-3.4,3.5-3.4c1.9,0,3.5,1.5,3.5,3.4c0,1.9-1.6,3.4-3.5,3.4
					C371.4,599.1,369.9,597.6,369.9,595.7z"/>
				<path class="st13" d="M376.7,604.2c0-1.9,1.6-3.4,3.5-3.4c1.9,0,3.5,1.5,3.5,3.4c0,1.9-1.6,3.4-3.5,3.4
					C378.3,607.6,376.7,606,376.7,604.2z"/>
				<path class="st13" d="M391.6,621.8c0-1.9,1.6-3.4,3.5-3.4c1.9,0,3.5,1.5,3.5,3.4c0,1.9-1.6,3.4-3.5,3.4
					C393.1,625.2,391.6,623.7,391.6,621.8z"/>
				<path class="st13" d="M400.5,631.4c0-1.9,1.6-3.4,3.5-3.4c1.9,0,3.5,1.5,3.5,3.4c0,1.9-1.6,3.4-3.5,3.4
					C402,634.8,400.5,633.3,400.5,631.4z"/>
				<path class="st13" d="M408.9,640.2c0-1.9,1.6-3.4,3.5-3.4c1.9,0,3.5,1.5,3.5,3.4c0,1.9-1.6,3.4-3.5,3.4
					C410.5,643.6,408.9,642,408.9,640.2z"/>
				<path class="st13" d="M419.5,650.3c0-1.9,1.6-3.4,3.5-3.4c1.9,0,3.5,1.5,3.5,3.4c0,1.9-1.6,3.4-3.5,3.4
					C421,653.7,419.5,652.2,419.5,650.3z"/>
				<path class="st13" d="M429.3,659.1c0-1.9,1.6-3.4,3.5-3.4c1.9,0,3.5,1.5,3.5,3.4c0,1.9-1.6,3.4-3.5,3.4
					C430.8,662.5,429.3,661,429.3,659.1z"/>
				<path class="st13" d="M440.3,667.8c0-1.9,1.6-3.4,3.5-3.4c1.9,0,3.5,1.5,3.5,3.4c0,1.9-1.6,3.4-3.5,3.4
					C441.9,671.2,440.3,669.7,440.3,667.8z"/>
				<path class="st13" d="M450.5,676.1c0-1.9,1.6-3.4,3.5-3.4c1.9,0,3.5,1.5,3.5,3.4c0,1.9-1.6,3.4-3.5,3.4
					C452.1,679.5,450.5,678,450.5,676.1z"/>
				<path class="st13" d="M383.7,612.7c0-1.9,1.6-3.4,3.5-3.4c1.9,0,3.5,1.5,3.5,3.4c0,1.9-1.6,3.4-3.5,3.4
					C385.2,616.1,383.7,614.6,383.7,612.7z"/>
			</g>
			<g>
				<path class="st13" d="M423.7,534.9c0.1-1.9,1.6-3.4,3.6-3.3c1.9,0.1,3.4,1.6,3.4,3.5c-0.1,1.9-1.6,3.4-3.6,3.3
					C425.2,538.3,423.6,536.7,423.7,534.9z"/>
				<path class="st13" d="M430.3,543.5c0.1-1.9,1.6-3.4,3.6-3.3c1.9,0.1,3.4,1.6,3.4,3.5c-0.1,1.9-1.6,3.4-3.6,3.3
					C431.8,546.9,430.3,545.3,430.3,543.5z"/>
				<path class="st13" d="M444.7,561.5c0.1-1.9,1.6-3.4,3.6-3.3c1.9,0.1,3.4,1.6,3.4,3.5c-0.1,1.9-1.6,3.4-3.6,3.3
					C446.1,564.9,444.6,563.4,444.7,561.5z"/>
				<path class="st13" d="M453.3,571.4c0.1-1.9,1.6-3.4,3.6-3.3c1.9,0.1,3.4,1.6,3.4,3.5c-0.1,1.9-1.6,3.4-3.6,3.3
					C454.7,574.8,453.2,573.3,453.3,571.4z"/>
				<path class="st13" d="M461.5,580.3c0.1-1.9,1.6-3.4,3.6-3.3s3.4,1.6,3.4,3.5c-0.1,1.9-1.6,3.4-3.6,3.3
					C462.9,583.8,461.4,582.2,461.5,580.3z"/>
				<path class="st13" d="M471.7,590.8c0.1-1.9,1.6-3.4,3.6-3.3c1.9,0.1,3.4,1.6,3.4,3.5c-0.1,1.9-1.6,3.4-3.6,3.3
					C473.2,594.2,471.7,592.7,471.7,590.8z"/>
				<path class="st13" d="M481.3,599.8c0.1-1.9,1.6-3.4,3.6-3.3s3.4,1.6,3.4,3.5c-0.1,1.9-1.6,3.4-3.6,3.3
					C482.8,603.3,481.3,601.7,481.3,599.8z"/>
				<path class="st13" d="M492.1,608.9c0.1-1.9,1.6-3.4,3.6-3.3c1.9,0.1,3.4,1.6,3.4,3.5c-0.1,1.9-1.6,3.4-3.6,3.3
					C493.6,612.3,492.1,610.7,492.1,608.9z"/>
				<path class="st13" d="M502.1,617.4c0.1-1.9,1.6-3.4,3.6-3.3c1.9,0.1,3.4,1.6,3.4,3.5c-0.1,1.9-1.6,3.4-3.6,3.3
					C503.5,620.9,502,619.3,502.1,617.4z"/>
				<path class="st13" d="M437,552.2c0.1-1.9,1.6-3.4,3.6-3.3s3.4,1.6,3.4,3.5c-0.1,1.9-1.6,3.4-3.6,3.3
					C438.5,555.7,437,554.1,437,552.2z"/>
			</g>
			<g>
				<path class="st13" d="M833.8,619.3c0.1-1.9-1.4-3.4-3.4-3.5c-1.9-0.1-3.5,1.4-3.6,3.3c-0.1,1.9,1.4,3.4,3.4,3.5
					C832.1,622.6,833.7,621.2,833.8,619.3z"/>
				<path class="st13" d="M826.6,627.5c0.1-1.9-1.4-3.4-3.4-3.5c-1.9-0.1-3.5,1.4-3.6,3.3c-0.1,1.9,1.4,3.4,3.4,3.5
					C825,630.8,826.6,629.4,826.6,627.5z"/>
				<path class="st13" d="M811.2,644.6c0.1-1.9-1.4-3.4-3.4-3.5c-1.9-0.1-3.5,1.4-3.6,3.3c-0.1,1.9,1.4,3.4,3.4,3.5
					C809.6,648,811.2,646.5,811.2,644.6z"/>
				<path class="st13" d="M802,654c0.1-1.9-1.4-3.4-3.4-3.5c-1.9-0.1-3.5,1.4-3.6,3.3c-0.1,1.9,1.4,3.4,3.4,3.5
					C800.4,657.3,802,655.9,802,654z"/>
				<path class="st13" d="M793.3,662.4c0.1-1.9-1.4-3.4-3.4-3.5c-1.9-0.1-3.5,1.4-3.6,3.3c-0.1,1.9,1.4,3.4,3.4,3.5
					C791.7,665.8,793.3,664.3,793.3,662.4z"/>
				<path class="st13" d="M782.5,672.3c0.1-1.9-1.4-3.4-3.4-3.5c-1.9-0.1-3.5,1.4-3.6,3.3c-0.1,1.9,1.4,3.4,3.4,3.5
					C780.8,675.6,782.4,674.1,782.5,672.3z"/>
				<path class="st13" d="M772.4,680.7c0.1-1.9-1.4-3.4-3.4-3.5c-1.9-0.1-3.5,1.4-3.6,3.3c-0.1,1.9,1.4,3.4,3.4,3.5
					C770.7,684,772.3,682.6,772.4,680.7z"/>
				<path class="st13" d="M761.1,689.1c0.1-1.9-1.4-3.4-3.4-3.5c-1.9-0.1-3.5,1.4-3.6,3.3c-0.1,1.9,1.4,3.4,3.4,3.5
					C759.4,692.4,761,691,761.1,689.1z"/>
				<path class="st13" d="M750.6,697.1c0.1-1.9-1.4-3.4-3.4-3.5c-1.9-0.1-3.5,1.4-3.6,3.3c-0.1,1.9,1.4,3.4,3.4,3.5
					C749,700.4,750.6,698.9,750.6,697.1z"/>
				<path class="st13" d="M819.4,635.8c0.1-1.9-1.4-3.4-3.4-3.5c-1.9-0.1-3.5,1.4-3.6,3.3c-0.1,1.9,1.4,3.4,3.4,3.5
					C817.8,639.2,819.4,637.7,819.4,635.8z"/>
			</g>
			<g>
				<path class="st13" d="M803.2,527.3c-0.2-1.9-1.9-3.2-3.8-3c-1.9,0.2-3.3,1.9-3.1,3.7c0.2,1.9,1.9,3.2,3.8,3
					C802.1,530.9,803.4,529.2,803.2,527.3z"/>
				<path class="st13" d="M797.3,536.4c-0.2-1.9-1.9-3.2-3.8-3c-1.9,0.2-3.3,1.9-3.1,3.7c0.2,1.9,1.9,3.2,3.8,3
					C796.1,540,797.5,538.3,797.3,536.4z"/>
				<path class="st13" d="M784.4,555.5c-0.2-1.9-1.9-3.2-3.8-3c-1.9,0.2-3.3,1.9-3.1,3.7c0.2,1.9,1.9,3.2,3.8,3
					C783.2,559.1,784.6,557.4,784.4,555.5z"/>
				<path class="st13" d="M776.6,566.1c-0.2-1.9-1.9-3.2-3.8-3c-1.9,0.2-3.3,1.9-3.1,3.7c0.2,1.9,1.9,3.2,3.8,3
					C775.4,569.6,776.8,567.9,776.6,566.1z"/>
				<path class="st13" d="M769.1,575.6c-0.2-1.9-1.9-3.2-3.8-3c-1.9,0.2-3.3,1.9-3.1,3.7c0.2,1.9,1.9,3.2,3.8,3
					C767.9,579.2,769.3,577.5,769.1,575.6z"/>
				<path class="st13" d="M759.7,586.9c-0.2-1.9-1.9-3.2-3.8-3c-1.9,0.2-3.3,1.9-3.1,3.7c0.2,1.9,1.9,3.2,3.8,3
					C758.5,590.4,759.9,588.7,759.7,586.9z"/>
				<path class="st13" d="M750.9,596.6c-0.2-1.9-1.9-3.2-3.8-3c-1.9,0.2-3.3,1.9-3.1,3.7c0.2,1.9,1.9,3.2,3.8,3
					C749.7,600.2,751.1,598.5,750.9,596.6z"/>
				<path class="st13" d="M740.8,606.5c-0.2-1.9-1.9-3.2-3.8-3c-1.9,0.2-3.3,1.9-3.1,3.7c0.2,1.9,1.9,3.2,3.8,3
					C739.7,610,741,608.3,740.8,606.5z"/>
				<path class="st13" d="M732.2,613.8c-0.2-1.9-1.9-3.2-3.8-3c-1.9,0.2-3.3,1.9-3.1,3.7s1.9,3.2,3.8,3
					C731,617.4,732.4,615.7,732.2,613.8z"/>
				<path class="st13" d="M791.3,545.7c-0.2-1.9-1.9-3.2-3.8-3c-1.9,0.2-3.3,1.9-3.1,3.7c0.2,1.9,1.9,3.2,3.8,3
					C790.1,549.2,791.5,547.6,791.3,545.7z"/>
			</g>
			<g>
				<path class="st13" d="M626.8,662.9c1.7-0.7,2.5-2.8,1.8-4.5c-0.7-1.8-2.7-2.6-4.5-1.9c-1.7,0.7-2.5,2.8-1.8,4.5
					C623.1,662.8,625.1,663.7,626.8,662.9z"/>
				<path class="st13" d="M614.2,662.9c1.7-0.7,2.5-2.8,1.8-4.5c-0.7-1.8-2.7-2.6-4.5-1.9c-1.7,0.7-2.5,2.8-1.8,4.5
					C610.5,662.8,612.5,663.7,614.2,662.9z"/>
				<path class="st13" d="M591.1,661.3c1.7-0.7,2.5-2.8,1.8-4.5c-0.7-1.8-2.7-2.6-4.5-1.9c-1.7,0.7-2.5,2.8-1.8,4.5
					C587.3,661.2,589.3,662,591.1,661.3z"/>
				<path class="st13" d="M578.6,658.1c1.7-0.7,2.5-2.8,1.8-4.5c-0.7-1.8-2.7-2.6-4.5-1.9c-1.7,0.7-2.5,2.8-1.8,4.5
					C574.9,658,576.9,658.8,578.6,658.1z"/>
				<path class="st13" d="M567.3,653.7c1.7-0.7,2.5-2.8,1.8-4.5c-0.7-1.8-2.7-2.6-4.5-1.9c-1.7,0.7-2.5,2.8-1.8,4.5
					C563.6,653.6,565.6,654.5,567.3,653.7z"/>
				<path class="st13" d="M553.9,647.9c1.7-0.7,2.5-2.8,1.8-4.5c-0.7-1.8-2.7-2.6-4.5-1.9c-1.7,0.7-2.5,2.8-1.8,4.5
					C550.1,647.8,552.1,648.7,553.9,647.9z"/>
				<path class="st13" d="M542,642.3c1.7-0.7,2.5-2.8,1.8-4.5c-0.7-1.8-2.7-2.6-4.5-1.9c-1.7,0.7-2.5,2.8-1.8,4.5
					S540.2,643,542,642.3z"/>
				<path class="st13" d="M529.6,635.5c1.7-0.7,2.5-2.8,1.8-4.5c-0.7-1.8-2.7-2.6-4.5-1.9c-1.7,0.7-2.5,2.8-1.8,4.5
					C525.9,635.4,527.9,636.3,529.6,635.5z"/>
				<path class="st13" d="M518,629.4c1.7-0.7,2.5-2.8,1.8-4.5c-0.7-1.8-2.7-2.6-4.5-1.9c-1.7,0.7-2.5,2.8-1.8,4.5
					C514.3,629.3,516.3,630.1,518,629.4z"/>
				<path class="st13" d="M602,662.9c1.7-0.7,2.5-2.8,1.8-4.5c-0.7-1.8-2.7-2.6-4.5-1.9c-1.7,0.7-2.5,2.8-1.8,4.5
					C598.3,662.8,600.3,663.7,602,662.9z"/>
			</g>
			<g>
				<path class="st13" d="M641.1,661.6c-1.9-0.3-3.1-2.1-2.8-4c0.3-1.9,2.1-3.2,3.9-2.9c1.9,0.3,3.1,2.1,2.8,4
					C644.7,660.7,642.9,661.9,641.1,661.6z"/>
				<path class="st13" d="M653.3,658.7c-1.9-0.3-3.1-2.1-2.8-4c0.3-1.9,2.1-3.2,3.9-2.9c1.9,0.3,3.1,2.1,2.8,4
					C656.9,657.7,655.2,659,653.3,658.7z"/>
				<path class="st13" d="M675.4,651.7c-1.9-0.3-3.1-2.1-2.8-4c0.3-1.9,2.1-3.2,3.9-2.9c1.9,0.3,3.1,2.1,2.8,4
					C679,650.7,677.3,652,675.4,651.7z"/>
				<path class="st13" d="M686.8,645.7c-1.9-0.3-3.1-2.1-2.8-4c0.3-1.9,2.1-3.2,3.9-2.9c1.9,0.3,3.1,2.1,2.8,4
					C690.4,644.7,688.6,646,686.8,645.7z"/>
				<path class="st13" d="M697.7,639.5c-1.9-0.3-3.1-2.1-2.8-4c0.3-1.9,2.1-3.2,3.9-2.9c1.9,0.3,3.1,2.1,2.8,4
					C701.3,638.6,699.6,639.9,697.7,639.5z"/>
				<path class="st13" d="M709.5,632c-1.9-0.3-3.1-2.1-2.8-4c0.3-1.9,2.1-3.2,3.9-2.9c1.9,0.3,3.1,2.1,2.8,4
					C713.1,631,711.3,632.3,709.5,632z"/>
				<path class="st13" d="M718.7,626c-1.9-0.3-3.1-2.1-2.8-4c0.3-1.9,2.1-3.2,3.9-2.9c1.9,0.3,3.1,2.1,2.8,4
					C722.3,625,720.6,626.3,718.7,626z"/>
				<path class="st13" d="M665.2,655.8c-1.9-0.3-3.1-2.1-2.8-4c0.3-1.9,2.1-3.2,3.9-2.9c1.9,0.3,3.1,2.1,2.8,4
					C668.8,654.8,667,656.1,665.2,655.8z"/>
			</g>
			<g>
				<path class="st13" d="M674.5,735.8c1.4-1.3,1.4-3.5,0.1-4.9c-1.3-1.4-3.5-1.5-4.9-0.2c-1.4,1.3-1.4,3.5-0.1,4.9
					C671,737,673.1,737.1,674.5,735.8z"/>
				<path class="st13" d="M686.9,731.5c1.4-1.3,1.4-3.5,0.1-4.9c-1.3-1.4-3.5-1.5-4.9-0.2c-1.4,1.3-1.4,3.5-0.1,4.9
					C683.4,732.7,685.6,732.8,686.9,731.5z"/>
				<path class="st13" d="M699.4,727.4c1.4-1.3,1.4-3.5,0.1-4.9c-1.3-1.4-3.5-1.5-4.9-0.2c-1.4,1.3-1.4,3.5-0.1,4.9
					C695.8,728.6,698,728.7,699.4,727.4z"/>
				<path class="st13" d="M711.9,722.1c1.4-1.3,1.4-3.5,0.1-4.9c-1.3-1.4-3.5-1.5-4.9-0.2c-1.4,1.3-1.4,3.5-0.1,4.9
					C708.4,723.3,710.5,723.4,711.9,722.1z"/>
				<path class="st13" d="M724.2,716.1c1.4-1.3,1.4-3.5,0.1-4.9c-1.3-1.4-3.5-1.5-4.9-0.2c-1.4,1.3-1.4,3.5-0.1,4.9
					C720.7,717.3,722.9,717.4,724.2,716.1z"/>
				<path class="st13" d="M663,738.7c1.4-1.3,1.4-3.5,0.1-4.9c-1.3-1.4-3.5-1.5-4.9-0.2c-1.4,1.3-1.4,3.5-0.1,4.9
					C659.5,739.9,661.6,740,663,738.7z"/>
				<path class="st13" d="M637.2,741.5c1.4-1.3,1.4-3.5,0.1-4.9c-1.3-1.4-3.5-1.5-4.9-0.2c-1.4,1.3-1.4,3.5-0.1,4.9
					C633.7,742.7,635.9,742.8,637.2,741.5z"/>
				<path class="st13" d="M624.1,741.7c1.4-1.3,1.4-3.5,0.1-4.9c-1.3-1.4-3.5-1.5-4.9-0.2s-1.4,3.5-0.1,4.9
					C620.6,742.9,622.8,743,624.1,741.7z"/>
				<path class="st13" d="M612,741.5c1.4-1.3,1.4-3.5,0.1-4.9c-1.3-1.4-3.5-1.5-4.9-0.2c-1.4,1.3-1.4,3.5-0.1,4.9
					C608.4,742.7,610.6,742.8,612,741.5z"/>
				<path class="st13" d="M597.3,740.8c1.4-1.3,1.4-3.5,0.1-4.9c-1.3-1.4-3.5-1.5-4.9-0.2c-1.4,1.3-1.4,3.5-0.1,4.9
					C593.8,742,596,742.1,597.3,740.8z"/>
				<path class="st13" d="M583.7,738.5c1.4-1.3,1.4-3.5,0.1-4.9c-1.3-1.4-3.5-1.5-4.9-0.2c-1.4,1.3-1.4,3.5-0.1,4.9
					C580.1,739.7,582.3,739.8,583.7,738.5z"/>
				<path class="st13" d="M571.1,735.6c1.4-1.3,1.4-3.5,0.1-4.9c-1.3-1.4-3.5-1.5-4.9-0.2c-1.4,1.3-1.4,3.5-0.1,4.9
					C567.6,736.8,569.7,736.9,571.1,735.6z"/>
				<path class="st13" d="M557.6,732.5c1.4-1.3,1.4-3.5,0.1-4.9c-1.3-1.4-3.5-1.5-4.9-0.2c-1.4,1.3-1.4,3.5-0.1,4.9
					C554.1,733.7,556.2,733.8,557.6,732.5z"/>
				<path class="st13" d="M545.4,727.7c1.4-1.3,1.4-3.5,0.1-4.9c-1.3-1.4-3.5-1.5-4.9-0.2c-1.4,1.3-1.4,3.5-0.1,4.9
					C541.9,728.9,544,728.9,545.4,727.7z"/>
				<path class="st13" d="M531.5,722.1c1.4-1.3,1.4-3.5,0.1-4.9c-1.3-1.4-3.5-1.5-4.9-0.2c-1.4,1.3-1.4,3.5-0.1,4.9
					C528,723.3,530.1,723.4,531.5,722.1z"/>
				<path class="st13" d="M519.6,717.1c1.4-1.3,1.4-3.5,0.1-4.9c-1.3-1.4-3.5-1.5-4.9-0.2c-1.4,1.3-1.4,3.5-0.1,4.9
					C516.1,718.3,518.3,718.4,519.6,717.1z"/>
				<path class="st13" d="M507.1,711.8c1.4-1.3,1.4-3.5,0.1-4.9c-1.3-1.4-3.5-1.5-4.9-0.2c-1.4,1.3-1.4,3.5-0.1,4.9
					C503.6,713,505.7,713.1,507.1,711.8z"/>
				<path class="st13" d="M494.3,704.9c1.4-1.3,1.4-3.5,0.1-4.9c-1.3-1.4-3.5-1.5-4.9-0.2c-1.4,1.3-1.4,3.5-0.1,4.9
					C490.7,706.1,492.9,706.2,494.3,704.9z"/>
				<path class="st13" d="M481.8,697.4c1.4-1.3,1.4-3.5,0.1-4.9c-1.3-1.4-3.5-1.5-4.9-0.2c-1.4,1.3-1.4,3.5-0.1,4.9
					C478.3,698.6,480.5,698.7,481.8,697.4z"/>
				<path class="st13" d="M649.5,739.8c1.4-1.3,1.4-3.5,0.1-4.9c-1.3-1.4-3.5-1.5-4.9-0.2c-1.4,1.3-1.4,3.5-0.1,4.9
					C646,741,648.1,741.1,649.5,739.8z"/>
			</g>
		</g>
		<g>
			<g>
				<path class="beer" d="M885.1,415.6c0,0,1.9,28.8-8.2,71.9c-8.5,35.9-7,53.4-7,53.4s-23.7,39.7-28.7,64.2
					c-6.1,29.8-2.5,74.2-3,106c-1.4,70.7,0.7,76.4,0,106.5c-0.7,30.1,1,44.3,20.7,46.8c16.5,2.1,83,2.6,102.8,0
					c19.8-2.6,21.4-16.7,20.7-46.8c-0.7-30.1,1.4-35.8,0-106.5c-0.6-31.8,3-76.2-3-106c-5-24.6-28.8-64.2-28.8-64.2s1.5-17.4-7-53.4
					c-10.2-43.1-8.3-71.9-8.3-71.9H885.1z"/>
				<path class="st14" d="M910.7,626.1c-18.7,0-34.6,9.8-41,23.6l-31.8,0.4l0.2,151.9l35,0.8c7.7,10.7,21.5,17.9,37.6,17.9
					c15.3,0,28.7-6.5,36.6-16.3l34.7,0.8l1.6-157.1l-32.4,0.4C944.6,635.4,928.9,626.1,910.7,626.1z"/>
				<path class="st6" d="M885.1,415.6c0,0,1.9,28.8-8.2,71.9c-8.5,35.9-7,53.4-7,53.4s-23.7,39.7-28.7,64.2
					c-6.1,29.8-2.5,74.2-3,106c-1.4,70.7,0.7,76.4,0,106.5c-0.7,30.1,1,44.3,20.7,46.8c16.5,2.1,83,2.6,102.8,0
					c19.8-2.6,21.4-16.7,20.7-46.8c-0.7-30.1,1.4-35.8,0-106.5c-0.6-31.8,3-76.2-3-106c-5-24.6-28.8-64.2-28.8-64.2s1.5-17.4-7-53.4
					c-10.2-43.1-8.3-71.9-8.3-71.9H885.1z"/>
				<path class="st15" d="M878.6,418.1c0-4,3.2-7.2,7.2-7.2h48.6c4,0,7.2,3.2,7.2,7.2l0,0c0,4-3.2,7.2-7.2,7.2h-48.6
					C881.8,425.3,878.6,422.1,878.6,418.1L878.6,418.1z"/>
				<path class="st16" d="M885.3,391.1h49.8V420h-49.8V391.1z"/>
				<path class="st9" d="M901.4,425.3h8.7c-1.6,83.3-8.9,125.8-8.9,125.8l-17.1-1.4C894.9,503.9,901.4,425.3,901.4,425.3z"/>
				<path class="st9" d="M881.4,559.6l9.8,3.8c-18.7,24.6-18.7,49.4-18.7,49.4h-14.9C857.6,588.6,881.4,559.6,881.4,559.6z"/>
				<path d="M865.7,420c0-7,5.6-12.6,12.6-12.6H942c7,0,12.6,5.6,12.6,12.6l0,0c0,7-5.6,12.6-12.6,12.6h-63.8
					C871.3,432.5,865.7,426.8,865.7,420L865.7,420z"/>
			</g>
		</g>
		<path class="st6" d="M730.9,632.7v230.8"/>
		<path class="st6" d="M463.9,620.1l4.8,245"/>
	</g>
</g>
</svg>
