<?xml version="1.0" encoding="utf-8"?>
<!-- Generator: Adobe Illustrator 28.0.0, SVG Export Plug-In . SVG Version: 6.00 Build 0)  -->
<svg version="1.1" id="Layer_1" xmlns="http://www.w3.org/2000/svg" xmlns:xlink="http://www.w3.org/1999/xlink" x="0px" y="0px"
	 viewBox="0 0 1138.7 889.3" style="enable-background:new 0 0 1138.7 889.3;" xml:space="preserve">
<style type="text/css">
	.st0{fill:#FFD6A7;}
	.st1{fill:#B52821;stroke:#000000;stroke-width:13.9283;stroke-linejoin:round;stroke-miterlimit:9.9988;}
	.st2{fill:#2E255A;stroke:#000000;stroke-width:13.9331;stroke-linejoin:round;stroke-miterlimit:9.9988;}
	.st3{fill:#FFCEBF;stroke:#000000;stroke-width:13.9331;stroke-linejoin:round;stroke-miterlimit:9.9988;}
	.st4{fill:#B52821;}
	.st5{fill:#FFC639;}
	.st6{fill:#FCAD2F;}
	.st7{fill:none;stroke:#000000;stroke-width:13.9331;stroke-linejoin:round;stroke-miterlimit:9.9988;}
	.st8{fill:#FFCEBF;}
	.st9{fill:#FFB8A1;}
	.st10{fill:#FFFFFF;}
	.st11{fill:#FFCC8C;}
	.st12{fill:#FCAD2F;stroke:#000000;stroke-width:13.9331;stroke-linejoin:round;stroke-miterlimit:9.9988;}
	.st13{fill:none;stroke:#FFFFFF;stroke-width:7.4325;stroke-linejoin:round;stroke-miterlimit:9.9988;}
	.st14{fill:#2E255A;}
	.st15{fill:#FFFFFF;stroke:#000000;stroke-width:13.9283;stroke-linejoin:round;stroke-miterlimit:9.9988;}
	.st16{fill:#F8D280;}
	.st17{fill:none;stroke:#000000;stroke-width:1.9341;stroke-linejoin:round;stroke-miterlimit:9.9988;}
	.st18{fill:#DBCDAA;stroke:#000000;stroke-width:13.9331;stroke-linejoin:round;stroke-miterlimit:9.9988;}
	.beer{fill:#FCAD2F;}
</style>
<g id="Слой-1">
	<g>
		<path class="st0" d="M569.4,120.2C265.5,120.2,19,359.5,19,654.7c0,80.3,18.3,156.4,51,224.7h998.9c32.6-68.3,51-144.4,51-224.7
			C1119.8,359.5,873.4,120.2,569.4,120.2z"/>
		<path d="M0,871.9h1138.7v17.4H0V871.9z"/>
		<g>
			<path class="st1" d="M417.2,220.7C413.5,134.4,500.9,11.4,602.2,7c31-1.4,93.8,21.6,133.4,57.1c45.6,41,58.6,98.7,84.2,149.7
				c17.1,34.1,44.9,64.9,45.9,87.7c2.1,47.5-83.4,17.5-142.2,13.9c-48.1-3-65.9,23.6-106.7,25.3C526.1,344.7,421,307,417.2,220.7z"
				/>
			<path class="st2" d="M594.4,485.4c0,0-174.8,9.2-231.8,109.8c-22.1,38.9-28.2,113.6-28.2,113.6l-68.6-163.9l-121.3-8
				c-10.2,152.5,121.3,343.6,121.3,343.6l624.1-1.3c0,0,86.5-338.3-153.7-377.2L594.4,485.4z"/>
			<path class="st3" d="M140.1,448.7c-53.7,86.4,6,127.1,48.6,131.3c47.6,4.7,89.6-2.3,104.3-35.1c5.5-12.4,9.4-40.5,5.9-59.6
				c-10.6-58.4-63.6-67.7-63.6-67.7L140.1,448.7z"/>
			<path class="st4" d="M495.3,512.3c0-52.2,55.5-94.5,124.2-94.5c68.5,0,124.2,42.3,124.2,94.5c0,52.2-55.5,94.5-124.2,94.5
				C550.9,606.8,495.3,564.5,495.3,512.3z"/>
			<path class="st5" d="M457.1,348.2c-10.6,68.1,10.1,109.5,41.2,151.6c26,35.2,56.5,77.2,109.5,81.7
				c86.9,7.4,146.7-79.1,157.1-146.9c8.5-55.1-7.6-103.7-5.1-122.4C760.7,305.1,476.4,223.1,457.1,348.2z"/>
			<path class="st6" d="M463.9,328c-7.7,49.6-14,65.6,0,100.4c21.3,53,79.3,103.8,149.7,103.8c90.1,0,150.5-72.2,151.4-139.8
				c0.4-27.3,3.4-2.9-6.6-40.6c-4.2-15.7,3.4-30.3,4.6-39.3c0.6-5,33.5-35.4,33.2-85.8c-2.8-7.4-2.2-10.1-5.3-17.6
				c-33.4-80.5-142.7-71.8-189.7-77c-44.9-5-108,51.3-132.6,105.7C451.6,275.9,466.2,313,463.9,328z"/>
			<path class="st7" d="M457.1,348.2c-14.9,125.7,89.3,233.3,156.5,233.3c41.2,0,177.7-43,144.9-229.7
				c-12.2-69.3-10.5,50.5,1.3-39.6C760.4,307.3,461.8,308.8,457.1,348.2z"/>
			<path class="st3" d="M706.6,328c0-24.3,20.2-44,45-44s45,19.7,45,44c0,24.3-20.2,44-45,44S706.6,352.3,706.6,328z"/>
			<path class="st3" d="M432.7,328c0-24.3,20.2-44,45-44c24.8,0,45,19.7,45,44c0,24.3-20.2,44-45,44
				C452.9,372,432.7,352.3,432.7,328z"/>
			<path class="st8" d="M549.2,179c-5.8-0.3-46.9,30.9-54.1,59.1c-17.8,70.1-2.2,181.1-2.2,181.1c21.7,23.2,49,19.7,76.5,23.5
				c78.8,10.9,164.2-24,164.2-24c27.1-174.6-30.7-230.9-54.2-238.7c-23.4-7.8-35.7,26.8-68.2,26.6C578.6,206.4,569.5,180,549.2,179z
				"/>
			<path class="st9" d="M672.7,178.9c-18.5,1.4-31.4,27.8-59.9,27.7c-32.6-0.2-41.7-26.6-62-27.6c-4.1-0.2-25.3,15.1-40.2,34
				c89.6,67.4,163.6,28.6,202.3-4c-11.4-17.4-23.8-26.2-31.9-28.9C678.1,179.1,675.4,178.8,672.7,178.9z"/>
			<path class="st7" d="M549.2,179c-5.8-0.3-46.9,30.9-54.1,59.1c-17.8,70.1-2.2,181.1-2.2,181.1c21.8,23.2,64.2-5.2,91.7-1.4
				c78.7,10.8,148.9,0.9,148.9,0.9c27.1-174.5-30.7-230.9-54.2-238.6c-23.4-7.8-35.7,26.8-68.2,26.6
				C578.6,206.4,569.5,180,549.2,179z"/>
			<path class="st3" d="M565.3,442.6c0-17,22.9-30.8,51.2-30.8c28.2,0,51.2,13.8,51.2,30.8c0,17-22.9,30.8-51.2,30.8
				C588.2,473.4,565.3,459.7,565.3,442.6z"/>
			<path d="M525.7,336.8c0-15,13.2-27,29.5-27c16.3,0,29.5,12.1,29.5,27c0,15-17.6-11.6-33.8-11.6
				C534.5,325.2,525.7,351.8,525.7,336.8z"/>
			<path d="M650.6,336.8c0-15,13.2-27,29.5-27c16.3,0,29.5,12.1,29.5,27c0,15-17.6-11.6-33.8-11.6
				C659.5,325.2,650.6,351.8,650.6,336.8z"/>
			<path d="M517.5,277.9c-2.1-7.4,13-18.2,33.8-24.2c20.7-5.9,39.3-4.8,41.4,2.6c2.1,7.4-13,18.2-33.8,24.2
				C538.1,286.5,519.5,285.3,517.5,277.9z"/>
			<path d="M650.6,263.6c2-7.4,20.5-8.9,41.4-3.3c20.8,5.6,36.1,16.2,34.2,23.6c-2,7.4-20.5,8.9-41.4,3.3
				C663.9,281.6,648.6,271.1,650.6,263.6z"/>
			<path class="st9" d="M507.1,356.8c0-2.8,8.3-5,18.6-5s18.6,2.2,18.6,5s-8.3,5-18.6,5C515.4,361.9,507.1,359.6,507.1,356.8z"/>
			<path class="st9" d="M688,356.8c0-2.8,8.3-5,18.6-5c10.2,0,18.6,2.2,18.6,5s-8.3,5-18.6,5C696.4,361.9,688,359.6,688,356.8z"/>
			<path d="M584.6,495.8h8.5v84.6h-8.5V495.8z"/>
			<path d="M609.4,522h8.5v60.2h-8.5V522z"/>
			<path d="M634,496.8h8.5v84.6H634V496.8z"/>
			<path class="st10" d="M17.9,292.7c-0.4-11.3,8.5-20.8,19.8-21.2l150.4-5.3c11.3-0.4,20.8,8.5,21.2,19.8l11,310.4
				c0.4,11.3-8.5,20.8-19.8,21.2l-150.4,5.3c-11.3,0.4-20.8-8.5-21.2-19.8L17.9,292.7z"/>
			<path class="st11" d="M212.8,357.6c-23.3,20.5-54,38.2-92.7,38.2c-36.7,0-61.8-29.4-98.6-32.7l6,170.9
				c51.2-11.4,127.5-20.3,191.7,4.3L212.8,357.6z"/>
			<path class="st7" d="M17.9,292.7c-0.4-11.3,8.5-20.8,19.8-21.2l150.4-5.3c11.3-0.4,20.8,8.5,21.2,19.8l11,310.4
				c0.4,11.3-8.5,20.8-19.8,21.2l-150.4,5.3c-11.3,0.4-20.8-8.5-21.2-19.8L17.9,292.7z"/>
			<path class="st8" d="M190.5,428.5c5.1-22.8,20-34.8,59.6-19c25.4,10.2,47.3,60.9,42.2,83.7s-8.2,51.8-26.5,51.8
				c-13.7,0-45.4-58.4-47.6-73.9C215.8,455.4,184.3,456.1,190.5,428.5z"/>
			<path class="st7" d="M275.1,521.8c-41.4,26.6-55.6-41.7-57-50.8c-2.3-15.7-33.8-15-27.7-42.5c5.1-22.8,23-41,59.6-19
				c32.7,19.7,50.2,64.1,50.2,100.2"/>
			<path class="st12" d="M580.2,372.2c-3,0.2-6,0.7-9.1,1.4c-46.2,11.4-102.1,31.8-102.1,31.8s32.8,70.2,97.7,37.4
				c12.1-6.1,44.6-25,44.6-25s26.3,18.8,38.3,25c65,32.8,108.9-37.4,108.9-37.4s-56-20.4-102.1-31.8c-17.9-4.4-33.2,1.1-42.6,11.4
				C605.8,376.6,594.1,371.4,580.2,372.2z"/>
			<path d="M81.2,280.2c-0.2-6.5,4.9-11.9,11.4-12.1l54.5-1.8c6.5-0.2,11.9,4.9,12.1,11.4l0,0c0.2,6.5-4.9,11.9-11.4,12.1l-54.5,1.8
				C86.8,291.7,81.3,286.7,81.2,280.2L81.2,280.2z"/>
			<g>
				<g>
					<g>
						<path class="st10" d="M488.1,523.6l-3.7-1.7l-4.8,10.5l-13.2-5.5l-1.7,4l13.1,5.5l-6.1,13.5l3.7,1.7l6.2-13.6l10.1,4.2l1.7-4
							l-10-4.2L488.1,523.6z"/>
						<path class="st10" d="M500.4,552.8l-4-1.1l-3,11.1l-13.9-3.3l-1,4.2l13.8,3.3l-3.8,14.3l4,1.1l3.9-14.5l10.6,2.5l1-4.2
							l-10.5-2.5L500.4,552.8z"/>
						<path class="st10" d="M522,581l-4.1-0.2l-0.5,11.5l-14.3-0.2l-0.1,4.3l14.2,0.2l-0.7,14.8l4.1,0.2l0.7-14.9l10.9,0.2l0.1-4.3
							l-10.8-0.2L522,581z"/>
						<path class="st10" d="M549.6,601.4l-3.8,1.5l4.2,10.7l-13.1,5.6l1.7,4l13-5.6l5.4,13.8l3.8-1.5l-5.5-13.9l10.1-4.3l-1.7-4
							l-10,4.3L549.6,601.4z"/>
						<path class="st10" d="M582.4,612.7l-3.2,2.6l7.2,9l-10.9,9.3l2.8,3.3l10.8-9.2l9.3,11.6l3.2-2.6l-9.4-11.7l8.3-7.1l-2.8-3.3
							l-8.2,7L582.4,612.7z"/>
					</g>
					<g>
						<path class="st10" d="M752.1,520.5l3.7-1.8l5.2,10.2l12.9-6.1l1.8,3.9l-12.8,6l6.7,13.2l-3.7,1.9l-6.8-13.3l-9.9,4.7l-1.8-3.9
							l9.8-4.6L752.1,520.5z"/>
						<path class="st10" d="M741.1,550.3l3.9-1.2l3.4,11l13.7-3.9l1.2,4.1l-13.6,3.8l4.4,14.2l-3.9,1.2l-4.5-14.3l-10.5,3l-1.2-4.1
							l10.4-2.9L741.1,550.3z"/>
						<path class="st10" d="M720.7,579.4l4.1-0.4l1,11.4l14.3-0.8l0.3,4.3l-14.2,0.8l1.3,14.8l-4.1,0.4l-1.3-14.9l-10.9,0.6
							l-0.3-4.3l10.8-0.6L720.7,579.4z"/>
						<path class="st10" d="M694,600.9l3.9,1.3l-3.8,10.9l13.4,5.1l-1.5,4l-13.3-5l-4.9,14l-3.9-1.3l4.9-14.1l-10.2-3.9l1.5-4
							l10.1,3.8L694,600.9z"/>
						<path class="st10" d="M661.6,613.5l3.3,2.4l-6.8,9.3l11.3,8.8l-2.6,3.4l-11.2-8.7l-8.8,12l-3.3-2.4l8.9-12l-8.6-6.7l2.6-3.4
							l8.5,6.7L661.6,613.5z"/>
						<path class="st10" d="M630.8,618.4l2.7,3.1l-8.6,7.7l9.2,10.9l-3.3,2.8l-9.1-10.8l-11.1,9.9l-2.7-3.1l11.2-10l-7.1-8.4
							l3.3-2.8l7,8.3L630.8,618.4z"/>
					</g>
				</g>
				<g>
					<g>
						<path class="st10" d="M412.5,669.5l-5.6-1.6l-7.2,10.1l-19.8-5.4l-2.5,3.8l19.7,5.3l-9.3,13.1l5.6,1.6l9.3-13.2l15.2,4.1
							l2.5-3.8l-15.1-4.1L412.5,669.5z"/>
						<path class="st10" d="M380.1,632.8l-4.8,0.6l-1.8,11.9l-16.7,2.7l-0.5,4.4l16.6-2.7l-2.3,15.4l4.8-0.6l2.3-15.5l12.8-2
							l0.5-4.4l-12.7,2L380.1,632.8z"/>
						<path class="st10" d="M431.1,697.8l-6-1l-4.5,10.7l-20.9-3.2l-1.5,4l20.8,3.2l-5.8,13.9l6,1l5.8-14l16,2.4l1.5-4l-15.9-2.4
							L431.1,697.8z"/>
						<path class="st10" d="M463.6,725.1l-6.2-0.2l-0.8,11.1l-21.5-0.2l-0.1,4.2l21.4,0.2l-1,14.3l6.2,0.2l1-14.4l16.5,0.2l0.1-4.2
							l-16.3-0.2L463.6,725.1z"/>
						<path class="st10" d="M505.2,744.8l-5.8,1.5l6.3,10.3L486,762l2.5,3.8l19.6-5.4l8.2,13.3l5.8-1.5l-8.3-13.5l15.2-4.2l-2.5-3.8
							l-15,4.1L505.2,744.8z"/>
						<path class="st10" d="M554.8,755.6l-4.8,2.5l10.8,8.7l-16.4,8.9l4.2,3.2l16.3-8.9l14,11.2l4.8-2.5l-14.1-11.3l12.6-6.9
							l-4.2-3.2l-12.4,6.8L554.8,755.6z"/>
					</g>
					<g>
						<path class="st10" d="M810.6,666.6l5.5-1.8l7.8,9.9l19.5-5.9l2.8,3.8l-19.3,5.8l10.1,12.8l-5.5,1.8l-10.2-12.9l-14.9,4.5
							l-2.8-3.8l14.8-4.5L810.6,666.6z"/>
						<path class="st10" d="M793.9,695.3l5.9-1.2l5.2,10.6l20.7-3.8l1.8,4l-20.6,3.7l6.7,13.7l-5.9,1.2l-6.7-13.8l-15.9,2.9l-1.8-4
							l15.7-2.8L793.9,695.3z"/>
						<path class="st10" d="M763.2,723.4l6.2-0.3l1.5,11.1l21.5-0.8l0.4,4.2l-21.3,0.8l1.9,14.3l-6.2,0.3l-2-14.4l-16.5,0.6
							l-0.4-4.2l16.3-0.6L763.2,723.4z"/>
						<path class="st10" d="M722.9,744.2l5.8,1.3l-5.7,10.5l20.1,4.9l-2.3,3.9l-20-4.9l-7.3,13.6l-5.9-1.3l7.4-13.7l-15.4-3.7
							l2.3-3.9l15.3,3.7L722.9,744.2z"/>
						<path class="st10" d="M674.1,756.4l5,2.4l-10.3,8.9l17,8.5l-4,3.3l-16.8-8.4l-13.3,11.6l-5-2.4l13.4-11.6l-13-6.5l4-3.3
							l12.9,6.4L674.1,756.4z"/>
						<path class="st10" d="M627.7,761.2l4.1,3l-12.9,7.4l13.9,10.5l-4.9,2.7l-13.8-10.5l-16.7,9.6l-4.1-3l16.8-9.6l-10.6-8.1
							l4.9-2.7l10.5,8L627.7,761.2z"/>
					</g>
				</g>
				<path class="st10" d="M421.3,544.9c0,0,2.2-1.6,4.7-3.2c2.5-1.6,5.3-3,5.3-3s78.3,126.5,189,126.5
					c110.7,0,177.3-135.8,177.3-135.8l9,5.2c0,0-74,141.2-187,141.2S421.3,544.9,421.3,544.9z"/>
				<path class="st10" d="M365.9,603.9c0,0,1-2,2.2-4.4s2.8-4.7,2.8-4.7s103.4,148.6,250.3,148.6c146.9,0,235.3-163,235.3-163
					l11.9,6.3c0,0-98.2,169.5-248.2,169.5S365.9,603.9,365.9,603.9z"/>
				<g>
					<path class="st10" d="M613.5,668.3c-1.9-0.1-3.8,0.6-5.3,1.8l-39.4,34.2c-3,2.6-3.1,6.9-0.4,9.7l36.7,36.7
						c2.8,2.8,7.4,2.9,10.3,0.3l39.4-34.1c3-2.6,3.1-6.9,0.4-9.7l-36.6-36.7C617.2,669.1,615.4,668.3,613.5,668.3z M613.4,670.4
						c1.3,0,2.5,0.6,3.5,1.5l36.7,36.7c1.9,1.9,1.8,4.9-0.2,6.6l-39.4,34.1c-2,1.8-5.2,1.7-7.1-0.2l-36.7-36.7
						c-1.9-1.9-1.8-4.9,0.2-6.6l39.4-34.1C610.7,670.8,612.1,670.4,613.4,670.4z"/>
					<path class="st10" d="M610.7,739.4l-29.9-29.9l32.1-27.8l29.9,29.9L610.7,739.4z"/>
				</g>
				<g>
					<path class="st10" d="M524.7,637.1c-1.5-0.8-3.2-1-4.9-0.5l-45.8,14.4c-3.5,1.1-5.5,4.8-4.6,8.3l12.2,46.6
						c0.9,3.5,4.4,5.5,7.9,4.4l45.8-14.3c3.5-1.1,5.5-4.8,4.6-8.3L527.8,641C527.3,639.3,526.2,637.9,524.7,637.1z M523.7,638.9
						c1,0.6,1.7,1.5,2,2.7l12.2,46.5c0.6,2.4-0.8,5-3.1,5.7l-45.8,14.3c-2.4,0.7-4.8-0.6-5.4-3l-12.2-46.6c-0.6-2.4,0.8-5,3.1-5.7
						l45.8-14.3C521.5,638.2,522.7,638.4,523.7,638.9z"/>
					<path class="st10" d="M491,698.3l-10-38.1l37.5-11.7l10,38.1L491,698.3z"/>
				</g>
				<g>
					<path class="st10" d="M444.1,567.9c-1.4-0.9-3.1-1.3-4.9-0.9l-46.8,10.7c-3.5,0.8-5.9,4.4-5.2,7.9l8.6,47.4
						c0.6,3.6,4,5.8,7.5,5l46.8-10.7c3.5-0.8,5.9-4.4,5.2-7.9l-8.5-47.4C446.5,570.3,445.5,568.9,444.1,567.9z M443,569.7
						c1,0.6,1.6,1.6,1.8,2.8l8.6,47.3c0.4,2.5-1.2,4.9-3.6,5.4L403,636.1c-2.4,0.6-4.7-1-5.2-3.4l-8.6-47.4
						c-0.4-2.4,1.2-4.9,3.6-5.4l46.8-10.7C440.8,568.8,442,569.1,443,569.7z"/>
					<path class="st10" d="M406.1,625.6l-6.8-37.6l37.1-8.5l6.8,37.6L406.1,625.6z"/>
				</g>
				<g>
					<g>
						<path class="st10" d="M777.3,568.1c-1.3,1.1-2,2.7-2.1,4.5l-1.2,48c-0.1,3.6,2.8,6.8,6.4,7l48,3.5c3.6,0.3,6.6-2.4,6.7-6
							l1.2-48c0.1-3.6-2.8-6.7-6.4-7l-48-3.5C780.3,566.4,778.6,567,777.3,568.1z M778.8,569.7c0.9-0.8,2-1.1,3.2-1l48,3.5
							c2.5,0.2,4.5,2.3,4.4,4.8l-1.2,48c-0.1,2.5-2.1,4.3-4.6,4.1l-48-3.5c-2.5-0.2-4.4-2.3-4.4-4.8l1.2-48
							C777.4,571.6,777.9,570.4,778.8,569.7z"/>
						<path class="st10" d="M823.1,618.4l-36.6-2.7l0.9-36.6l36.6,2.7L823.1,618.4z"/>
						<path class="st10" d="M421.3,658.8l47.5-15.9"/>
					</g>
					<g>
						<path class="st10" d="M708.3,639.4c-1.4,1-2.4,2.4-2.6,4.2l-7.4,47.4c-0.6,3.6,1.9,7.1,5.4,7.8l47.2,9.7
							c3.5,0.7,6.9-1.6,7.4-5.1l7.4-47.4c0.6-3.6-1.9-7-5.4-7.8l-47.1-9.7C711.4,638,709.7,638.4,708.3,639.4z M709.5,641.1
							c0.9-0.7,2.1-0.9,3.3-0.6l47.1,9.7c2.4,0.5,4.1,2.9,3.7,5.3l-7.4,47.4c-0.4,2.4-2.7,4-5.1,3.5l-47.2-9.7
							c-2.4-0.5-4.1-2.9-3.7-5.3l7.4-47.4C707.9,642.8,708.6,641.7,709.5,641.1z"/>
						<path class="st10" d="M747.8,696.1l-37.5-7.7l5.9-37.6l37.5,7.7L747.8,696.1z"/>
					</g>
				</g>
				<path class="st13" d="M477.7,602.6l-13.8,40.3L420.3,656"/>
				<path class="st13" d="M560.1,658l-2.6,42.5L519,724.8"/>
				<path class="st13" d="M665.5,663l2.6,42.5l38.5,24.3"/>
				<path class="st13" d="M758.5,598.1l6.7,42l40.7,20.4"/>
				<g>
					<path class="st14" d="M369.9,606c0-1.9,1.6-3.4,3.5-3.4c1.9,0,3.5,1.5,3.5,3.4c0,1.9-1.6,3.4-3.5,3.4
						C371.4,609.4,369.9,607.8,369.9,606z"/>
					<path class="st14" d="M376.7,614.4c0-1.9,1.6-3.4,3.5-3.4c1.9,0,3.5,1.5,3.5,3.4c0,1.9-1.6,3.4-3.5,3.4
						C378.3,617.8,376.7,616.2,376.7,614.4z"/>
					<path class="st14" d="M391.6,632c0-1.9,1.6-3.4,3.5-3.4c1.9,0,3.5,1.5,3.5,3.4c0,1.9-1.6,3.4-3.5,3.4
						C393.1,635.4,391.6,633.9,391.6,632z"/>
					<path class="st14" d="M400.5,641.6c0-1.9,1.6-3.4,3.5-3.4c1.9,0,3.5,1.5,3.5,3.4c0,1.9-1.6,3.4-3.5,3.4
						C402,645,400.5,643.5,400.5,641.6z"/>
					<path class="st14" d="M408.9,650.4c0-1.9,1.6-3.4,3.5-3.4c1.9,0,3.5,1.5,3.5,3.4c0,1.9-1.6,3.4-3.5,3.4
						C410.5,653.8,408.9,652.2,408.9,650.4z"/>
					<path class="st14" d="M419.5,660.5c0-1.9,1.6-3.4,3.5-3.4s3.5,1.5,3.5,3.4c0,1.9-1.6,3.4-3.5,3.4S419.5,662.4,419.5,660.5z"/>
					<path class="st14" d="M429.3,669.3c0-1.9,1.6-3.4,3.5-3.4c1.9,0,3.5,1.5,3.5,3.4c0,1.9-1.6,3.4-3.5,3.4
						C430.8,672.7,429.3,671.2,429.3,669.3z"/>
					<path class="st14" d="M440.3,678c0-1.9,1.6-3.4,3.5-3.4c1.9,0,3.5,1.5,3.5,3.4c0,1.9-1.6,3.4-3.5,3.4
						C441.9,681.4,440.3,679.9,440.3,678z"/>
					<path class="st14" d="M450.5,686.3c0-1.9,1.6-3.4,3.5-3.4c1.9,0,3.5,1.5,3.5,3.4c0,1.9-1.6,3.4-3.5,3.4
						C452.1,689.7,450.5,688.2,450.5,686.3z"/>
					<path class="st14" d="M383.7,623c0-1.9,1.6-3.4,3.5-3.4c1.9,0,3.5,1.5,3.5,3.4c0,1.9-1.6,3.4-3.5,3.4
						C385.2,626.3,383.7,624.8,383.7,623z"/>
				</g>
				<g>
					<path class="st14" d="M423.7,545.1c0.1-1.9,1.6-3.4,3.6-3.3c1.9,0.1,3.4,1.6,3.4,3.5c-0.1,1.9-1.6,3.4-3.6,3.3
						C425.2,548.5,423.6,546.9,423.7,545.1z"/>
					<path class="st14" d="M430.3,553.7c0.1-1.9,1.6-3.4,3.6-3.3c1.9,0.1,3.4,1.6,3.4,3.5c-0.1,1.9-1.6,3.4-3.6,3.3
						C431.8,557.1,430.3,555.5,430.3,553.7z"/>
					<path class="st14" d="M444.7,571.7c0.1-1.9,1.6-3.4,3.6-3.3c1.9,0.1,3.4,1.6,3.4,3.5c-0.1,1.9-1.6,3.4-3.6,3.3
						C446.1,575.2,444.6,573.6,444.7,571.7z"/>
					<path class="st14" d="M453.3,581.6c0.1-1.9,1.6-3.4,3.6-3.3c1.9,0.1,3.4,1.6,3.4,3.5c-0.1,1.9-1.6,3.4-3.6,3.3
						S453.2,583.5,453.3,581.6z"/>
					<path class="st14" d="M461.5,590.6c0.1-1.9,1.6-3.4,3.6-3.3s3.4,1.6,3.4,3.5c-0.1,1.9-1.6,3.4-3.6,3.3
						C462.9,594,461.4,592.4,461.5,590.6z"/>
					<path class="st14" d="M471.7,601c0.1-1.9,1.6-3.4,3.6-3.3c1.9,0.1,3.4,1.6,3.4,3.5c-0.1,1.9-1.6,3.4-3.6,3.3
						C473.2,604.4,471.7,602.9,471.7,601z"/>
					<path class="st14" d="M481.3,610c0.1-1.9,1.6-3.4,3.6-3.3c1.9,0.1,3.4,1.6,3.4,3.5c-0.1,1.9-1.6,3.4-3.6,3.3
						C482.8,613.5,481.3,611.9,481.3,610z"/>
					<path class="st14" d="M492.1,619.1c0.1-1.9,1.6-3.4,3.6-3.3c1.9,0.1,3.4,1.6,3.4,3.5c-0.1,1.9-1.6,3.4-3.6,3.3
						C493.6,622.5,492.1,620.9,492.1,619.1z"/>
					<path class="st14" d="M502.1,627.6c0.1-1.9,1.6-3.4,3.6-3.3c1.9,0.1,3.4,1.6,3.4,3.5c-0.1,1.9-1.6,3.4-3.6,3.3
						C503.5,631.1,502,629.5,502.1,627.6z"/>
					<path class="st14" d="M437,562.4c0.1-1.9,1.6-3.4,3.6-3.3c1.9,0.1,3.4,1.6,3.4,3.5c-0.1,1.9-1.6,3.4-3.6,3.3
						C438.5,565.9,437,564.3,437,562.4z"/>
				</g>
				<g>
					<path class="st14" d="M833.8,629.5c0.1-1.9-1.4-3.4-3.4-3.5c-1.9-0.1-3.5,1.4-3.6,3.3s1.4,3.4,3.4,3.5
						C832.1,632.9,833.7,631.4,833.8,629.5z"/>
					<path class="st14" d="M826.6,637.7c0.1-1.9-1.4-3.4-3.4-3.5c-1.9-0.1-3.5,1.4-3.6,3.3c-0.1,1.9,1.4,3.4,3.4,3.5
						C825,641,826.6,639.6,826.6,637.7z"/>
					<path class="st14" d="M811.2,654.9c0.1-1.9-1.4-3.4-3.4-3.5c-1.9-0.1-3.5,1.4-3.6,3.3c-0.1,1.9,1.4,3.4,3.4,3.5
						C809.6,658.2,811.2,656.7,811.2,654.9z"/>
					<path class="st14" d="M802,664.2c0.1-1.9-1.4-3.4-3.4-3.5c-1.9-0.1-3.5,1.4-3.6,3.3c-0.1,1.9,1.4,3.4,3.4,3.5
						C800.4,667.5,802,666.1,802,664.2z"/>
					<path class="st14" d="M793.3,672.7c0.1-1.9-1.4-3.4-3.4-3.5c-1.9-0.1-3.5,1.4-3.6,3.3c-0.1,1.9,1.4,3.4,3.4,3.5
						C791.7,676,793.3,674.5,793.3,672.7z"/>
					<path class="st14" d="M782.5,682.5c0.1-1.9-1.4-3.4-3.4-3.5c-1.9-0.1-3.5,1.4-3.6,3.3c-0.1,1.9,1.4,3.4,3.4,3.5
						C780.8,685.8,782.4,684.3,782.5,682.5z"/>
					<path class="st14" d="M772.4,690.9c0.1-1.9-1.4-3.4-3.4-3.5c-1.9-0.1-3.5,1.4-3.6,3.3c-0.1,1.9,1.4,3.4,3.4,3.5
						C770.7,694.3,772.3,692.8,772.4,690.9z"/>
					<path class="st14" d="M761.1,699.3c0.1-1.9-1.4-3.4-3.4-3.5c-1.9-0.1-3.5,1.4-3.6,3.3c-0.1,1.9,1.4,3.4,3.4,3.5
						C759.4,702.6,761,701.2,761.1,699.3z"/>
					<path class="st14" d="M750.6,707.3c0.1-1.9-1.4-3.4-3.4-3.5c-1.9-0.1-3.5,1.4-3.6,3.3c-0.1,1.9,1.4,3.4,3.4,3.5
						C749,710.6,750.6,709.1,750.6,707.3z"/>
					<path class="st14" d="M819.4,646.1c0.1-1.9-1.4-3.4-3.4-3.5c-1.9-0.1-3.5,1.4-3.6,3.3c-0.1,1.9,1.4,3.4,3.4,3.5
						C817.8,649.4,819.4,647.9,819.4,646.1z"/>
				</g>
				<g>
					<path class="st14" d="M803.2,537.5c-0.2-1.9-1.9-3.2-3.8-3c-1.9,0.2-3.3,1.9-3.1,3.7c0.2,1.9,1.9,3.2,3.8,3
						C802.1,541.1,803.4,539.4,803.2,537.5z"/>
					<path class="st14" d="M797.3,546.6c-0.2-1.9-1.9-3.2-3.8-3c-1.9,0.2-3.3,1.9-3.1,3.7c0.2,1.9,1.9,3.2,3.8,3
						C796.1,550.2,797.5,548.5,797.3,546.6z"/>
					<path class="st14" d="M784.4,565.7c-0.2-1.9-1.9-3.2-3.8-3c-1.9,0.2-3.3,1.9-3.1,3.7c0.2,1.9,1.9,3.2,3.8,3
						C783.2,569.3,784.6,567.6,784.4,565.7z"/>
					<path class="st14" d="M776.6,576.3c-0.2-1.9-1.9-3.2-3.8-3c-1.9,0.2-3.3,1.9-3.1,3.7c0.2,1.9,1.9,3.2,3.8,3
						C775.4,579.8,776.8,578.1,776.6,576.3z"/>
					<path class="st14" d="M769.1,585.8c-0.2-1.9-1.9-3.2-3.8-3c-1.9,0.2-3.3,1.9-3.1,3.7c0.2,1.9,1.9,3.2,3.8,3
						C767.9,589.4,769.3,587.7,769.1,585.8z"/>
					<path class="st14" d="M759.7,597.1c-0.2-1.9-1.9-3.2-3.8-3c-1.9,0.2-3.3,1.9-3.1,3.7c0.2,1.9,1.9,3.2,3.8,3
						C758.5,600.6,759.9,598.9,759.7,597.1z"/>
					<path class="st14" d="M750.9,606.8c-0.2-1.9-1.9-3.2-3.8-3c-1.9,0.2-3.3,1.9-3.1,3.7c0.2,1.9,1.9,3.2,3.8,3
						C749.7,610.4,751.1,608.7,750.9,606.8z"/>
					<path class="st14" d="M740.8,616.7c-0.2-1.9-1.9-3.2-3.8-3c-1.9,0.2-3.3,1.9-3.1,3.7c0.2,1.9,1.9,3.2,3.8,3
						C739.7,620.2,741,618.5,740.8,616.7z"/>
					<path class="st14" d="M732.2,624c-0.2-1.9-1.9-3.2-3.8-3c-1.9,0.2-3.3,1.9-3.1,3.7c0.2,1.9,1.9,3.2,3.8,3
						C731,627.6,732.4,625.9,732.2,624z"/>
					<path class="st14" d="M791.3,555.9c-0.2-1.9-1.9-3.2-3.8-3c-1.9,0.2-3.3,1.9-3.1,3.7c0.2,1.9,1.9,3.2,3.8,3
						C790.1,559.4,791.5,557.8,791.3,555.9z"/>
				</g>
				<g>
					<path class="st14" d="M626.8,673.1c1.7-0.7,2.5-2.8,1.8-4.5c-0.7-1.8-2.7-2.6-4.5-1.9c-1.7,0.7-2.5,2.8-1.8,4.5
						C623.1,673,625.1,673.9,626.8,673.1z"/>
					<path class="st14" d="M614.2,673.1c1.7-0.7,2.5-2.8,1.8-4.5c-0.7-1.8-2.7-2.6-4.5-1.9c-1.7,0.7-2.5,2.8-1.8,4.5
						C610.5,673,612.5,673.9,614.2,673.1z"/>
					<path class="st14" d="M591.1,671.5c1.7-0.7,2.5-2.8,1.8-4.5c-0.7-1.8-2.7-2.6-4.5-1.9c-1.7,0.7-2.5,2.8-1.8,4.5
						C587.3,671.4,589.3,672.2,591.1,671.5z"/>
					<path class="st14" d="M578.6,668.3c1.7-0.7,2.5-2.8,1.8-4.5c-0.7-1.8-2.7-2.6-4.5-1.9c-1.7,0.7-2.5,2.8-1.8,4.5
						C574.9,668.2,576.9,669.1,578.6,668.3z"/>
					<path class="st14" d="M567.3,663.9c1.7-0.7,2.5-2.8,1.8-4.5c-0.7-1.8-2.7-2.6-4.5-1.9c-1.7,0.7-2.5,2.8-1.8,4.5
						C563.6,663.8,565.6,664.7,567.3,663.9z"/>
					<path class="st14" d="M553.9,658.2c1.7-0.7,2.5-2.8,1.8-4.5c-0.7-1.8-2.7-2.6-4.5-1.9c-1.7,0.7-2.5,2.8-1.8,4.5
						C550.1,658,552.1,658.9,553.9,658.2z"/>
					<path class="st14" d="M542,652.5c1.7-0.7,2.5-2.8,1.8-4.5c-0.7-1.8-2.7-2.6-4.5-1.9c-1.7,0.7-2.5,2.8-1.8,4.5
						C538.2,652.4,540.2,653.3,542,652.5z"/>
					<path class="st14" d="M529.6,645.7c1.7-0.7,2.5-2.8,1.8-4.5c-0.7-1.8-2.7-2.6-4.5-1.9c-1.7,0.7-2.5,2.8-1.8,4.5
						C525.9,645.6,527.9,646.5,529.6,645.7z"/>
					<path class="st14" d="M518,639.6c1.7-0.7,2.5-2.8,1.8-4.5c-0.7-1.8-2.7-2.6-4.5-1.9c-1.7,0.7-2.5,2.8-1.8,4.5
						C514.3,639.5,516.3,640.3,518,639.6z"/>
					<path class="st14" d="M602,673.1c1.7-0.7,2.5-2.8,1.8-4.5c-0.7-1.8-2.7-2.6-4.5-1.9c-1.7,0.7-2.5,2.8-1.8,4.5
						C598.3,673,600.3,673.9,602,673.1z"/>
				</g>
				<g>
					<path class="st14" d="M641.1,671.9c-1.9-0.3-3.1-2.1-2.8-4c0.3-1.9,2.1-3.2,3.9-2.9c1.9,0.3,3.1,2.1,2.8,4
						C644.7,670.9,642.9,672.2,641.1,671.9z"/>
					<path class="st14" d="M653.3,668.9c-1.9-0.3-3.1-2.1-2.8-4c0.3-1.9,2.1-3.2,3.9-2.9c1.9,0.3,3.1,2.1,2.8,4
						C656.9,667.9,655.2,669.2,653.3,668.9z"/>
					<path class="st14" d="M675.4,661.9c-1.9-0.3-3.1-2.1-2.8-4c0.3-1.9,2.1-3.2,3.9-2.9c1.9,0.3,3.1,2.1,2.8,4
						C679,660.9,677.3,662.2,675.4,661.9z"/>
					<path class="st14" d="M686.8,655.9c-1.9-0.3-3.1-2.1-2.8-4c0.3-1.9,2.1-3.2,3.9-2.9c1.9,0.3,3.1,2.1,2.8,4
						C690.4,654.9,688.6,656.2,686.8,655.9z"/>
					<path class="st14" d="M697.7,649.8c-1.9-0.3-3.1-2.1-2.8-4c0.3-1.9,2.1-3.2,3.9-2.9c1.9,0.3,3.1,2.1,2.8,4
						C701.3,648.8,699.6,650.1,697.7,649.8z"/>
					<path class="st14" d="M709.5,642.2c-1.9-0.3-3.1-2.1-2.8-4c0.3-1.9,2.1-3.2,3.9-2.9c1.9,0.3,3.1,2.1,2.8,4
						C713.1,641.2,711.3,642.5,709.5,642.2z"/>
					<path class="st14" d="M718.7,636.2c-1.9-0.3-3.1-2.1-2.8-4c0.3-1.9,2.1-3.2,3.9-2.9c1.9,0.3,3.1,2.1,2.8,4
						C722.3,635.2,720.6,636.5,718.7,636.2z"/>
					<path class="st14" d="M665.2,666c-1.9-0.3-3.1-2.1-2.8-4c0.3-1.9,2.1-3.2,3.9-2.9c1.9,0.3,3.1,2.1,2.8,4
						C668.8,665.1,667,666.3,665.2,666z"/>
				</g>
				<g>
					<path class="st14" d="M674.5,746c1.4-1.3,1.4-3.5,0.1-4.9c-1.3-1.4-3.5-1.5-4.9-0.2c-1.4,1.3-1.4,3.5-0.1,4.9
						C671,747.2,673.1,747.3,674.5,746z"/>
					<path class="st14" d="M686.9,741.7c1.4-1.3,1.4-3.5,0.1-4.9c-1.3-1.4-3.5-1.5-4.9-0.2c-1.4,1.3-1.4,3.5-0.1,4.9
						C683.4,742.9,685.6,743,686.9,741.7z"/>
					<path class="st14" d="M699.4,737.6c1.4-1.3,1.4-3.5,0.1-4.9c-1.3-1.4-3.5-1.5-4.9-0.2c-1.4,1.3-1.4,3.5-0.1,4.9
						C695.8,738.8,698,738.9,699.4,737.6z"/>
					<path class="st14" d="M711.9,732.3c1.4-1.3,1.4-3.5,0.1-4.9c-1.3-1.4-3.5-1.5-4.9-0.2c-1.4,1.3-1.4,3.5-0.1,4.9
						C708.4,733.5,710.5,733.6,711.9,732.3z"/>
					<path class="st14" d="M724.2,726.3c1.4-1.3,1.4-3.5,0.1-4.9c-1.3-1.4-3.5-1.5-4.9-0.2c-1.4,1.3-1.4,3.5-0.1,4.9
						S722.9,727.6,724.2,726.3z"/>
					<path class="st14" d="M663,748.9c1.4-1.3,1.4-3.5,0.1-4.9c-1.3-1.4-3.5-1.5-4.9-0.2c-1.4,1.3-1.4,3.5-0.1,4.9
						C659.5,750.1,661.6,750.2,663,748.9z"/>
					<path class="st14" d="M637.2,751.8c1.4-1.3,1.4-3.5,0.1-4.9c-1.3-1.4-3.5-1.5-4.9-0.2c-1.4,1.3-1.4,3.5-0.1,4.9
						C633.7,753,635.9,753,637.2,751.8z"/>
					<path class="st14" d="M624.1,751.9c1.4-1.3,1.4-3.5,0.1-4.9c-1.3-1.4-3.5-1.5-4.9-0.2c-1.4,1.3-1.4,3.5-0.1,4.9
						C620.6,753.1,622.8,753.2,624.1,751.9z"/>
					<path class="st14" d="M612,751.7c1.4-1.3,1.4-3.5,0.1-4.9c-1.3-1.4-3.5-1.5-4.9-0.2c-1.4,1.3-1.4,3.5-0.1,4.9
						C608.4,752.9,610.6,753,612,751.7z"/>
					<path class="st14" d="M597.3,751c1.4-1.3,1.4-3.5,0.1-4.9c-1.3-1.4-3.5-1.5-4.9-0.2c-1.4,1.3-1.4,3.5-0.1,4.9
						C593.8,752.2,596,752.3,597.3,751z"/>
					<path class="st14" d="M583.7,748.7c1.4-1.3,1.4-3.5,0.1-4.9c-1.3-1.4-3.5-1.5-4.9-0.2c-1.4,1.3-1.4,3.5-0.1,4.9
						C580.1,749.9,582.3,750,583.7,748.7z"/>
					<path class="st14" d="M571.1,745.8c1.4-1.3,1.4-3.5,0.1-4.9c-1.3-1.4-3.5-1.5-4.9-0.2c-1.4,1.3-1.4,3.5-0.1,4.9
						C567.6,747,569.7,747.1,571.1,745.8z"/>
					<path class="st14" d="M557.6,742.7c1.4-1.3,1.4-3.5,0.1-4.9c-1.3-1.4-3.5-1.5-4.9-0.2s-1.4,3.5-0.1,4.9
						C554.1,743.9,556.2,744,557.6,742.7z"/>
					<path class="st14" d="M545.4,737.9c1.4-1.3,1.4-3.5,0.1-4.9c-1.3-1.4-3.5-1.5-4.9-0.2c-1.4,1.3-1.4,3.5-0.1,4.9
						C541.9,739.1,544,739.2,545.4,737.9z"/>
					<path class="st14" d="M531.5,732.3c1.4-1.3,1.4-3.5,0.1-4.9c-1.3-1.4-3.5-1.5-4.9-0.2c-1.4,1.3-1.4,3.5-0.1,4.9
						C528,733.5,530.1,733.6,531.5,732.3z"/>
					<path class="st14" d="M519.6,727.3c1.4-1.3,1.4-3.5,0.1-4.9c-1.3-1.4-3.5-1.5-4.9-0.2c-1.4,1.3-1.4,3.5-0.1,4.9
						C516.1,728.5,518.3,728.6,519.6,727.3z"/>
					<path class="st14" d="M507.1,722c1.4-1.3,1.4-3.5,0.1-4.9c-1.3-1.4-3.5-1.5-4.9-0.2c-1.4,1.3-1.4,3.5-0.1,4.9
						C503.6,723.2,505.7,723.3,507.1,722z"/>
					<path class="st14" d="M494.3,715.1c1.4-1.3,1.4-3.5,0.1-4.9c-1.3-1.4-3.5-1.5-4.9-0.2c-1.4,1.3-1.4,3.5-0.1,4.9
						C490.7,716.3,492.9,716.4,494.3,715.1z"/>
					<path class="st14" d="M481.8,707.6c1.4-1.3,1.4-3.5,0.1-4.9c-1.3-1.4-3.5-1.5-4.9-0.2c-1.4,1.3-1.4,3.5-0.1,4.9
						C478.3,708.8,480.5,708.9,481.8,707.6z"/>
					<path class="st14" d="M649.5,750c1.4-1.3,1.4-3.5,0.1-4.9c-1.3-1.4-3.5-1.5-4.9-0.2c-1.4,1.3-1.4,3.5-0.1,4.9
						C646,751.2,648.1,751.3,649.5,750z"/>
				</g>
			</g>
			<path class="st7" d="M730.9,642.9v230.8"/>
			<path class="st7" d="M463.9,630.3l4.8,245"/>
			<path class="st15" d="M837.6,314.1c-1.2-28.4,20.3-52.4,48.1-53.6c27.8-1.2,51.4,20.8,52.6,49.2c1.2,28.4-20.3,52.4-48.1,53.6
				C862.3,364.5,838.8,342.5,837.6,314.1z"/>
			<path class="st15" d="M402.2,233.5c0.2-54.7,93.5-98.7,208.5-98.4c115,0.3,199.2,44.9,199.1,99.6c-0.1,32.6-26.1,49.6-37.9,48.8
				c-12.9-0.8,0.1-21.9-35.6-43.1c-15.2-9-66.6-24.3-121.5-25.6c-46.9-1.1-96.3,9.6-128,24.9c-30.4,14.7-23.1,40.3-37.6,42.9
				C428.3,286.3,402.2,260.5,402.2,233.5z"/>
		</g>
		<g>
			<g>
				<path class="beer" d="M885.1,425.8c0,0,1.9,28.8-8.2,71.9c-8.5,35.9-7,53.4-7,53.4s-23.7,39.7-28.7,64.2
					c-6.1,29.8-2.5,74.2-3,106c-1.4,70.7,0.7,76.4,0,106.5c-0.7,30.1,1,44.3,20.7,46.8c16.5,2.1,83,2.6,102.8,0
					c19.8-2.6,21.4-16.7,20.7-46.8c-0.7-30.1,1.4-35.8,0-106.5c-0.6-31.8,3-76.2-3-106c-5-24.6-28.8-64.2-28.8-64.2s1.5-17.4-7-53.4
					c-10.2-43.1-8.3-71.9-8.3-71.9H885.1z"/>
				<path class="st16" d="M910.7,636.3c-18.7,0-34.6,9.8-41,23.6l-31.8,0.4l0.2,151.9l35,0.8c7.7,10.7,21.5,17.9,37.6,17.9
					c15.3,0,28.7-6.5,36.6-16.3l34.7,0.8l1.6-157.1l-32.4,0.4C944.6,645.6,928.9,636.3,910.7,636.3z"/>
				<path class="st7" d="M885.1,425.8c0,0,1.9,28.8-8.2,71.9c-8.5,35.9-7,53.4-7,53.4s-23.7,39.7-28.7,64.2
					c-6.1,29.8-2.5,74.2-3,106c-1.4,70.7,0.7,76.4,0,106.5c-0.7,30.1,1,44.3,20.7,46.8c16.5,2.1,83,2.6,102.8,0
					c19.8-2.6,21.4-16.7,20.7-46.8c-0.7-30.1,1.4-35.8,0-106.5c-0.6-31.8,3-76.2-3-106c-5-24.6-28.8-64.2-28.8-64.2s1.5-17.4-7-53.4
					c-10.2-43.1-8.3-71.9-8.3-71.9H885.1z"/>
				<path class="st17" d="M878.6,428.3c0-4,3.2-7.2,7.2-7.2h48.6c4,0,7.2,3.2,7.2,7.2l0,0c0,4-3.2,7.2-7.2,7.2h-48.6
					C881.8,435.5,878.6,432.3,878.6,428.3L878.6,428.3z"/>
				<path class="st18" d="M885.3,401.3h49.8v28.9h-49.8V401.3z"/>
				<path class="st10" d="M901.4,435.5h8.7c-1.6,83.3-8.9,125.8-8.9,125.8l-17.1-1.4C894.9,514.1,901.4,435.5,901.4,435.5z"/>
				<path class="st10" d="M881.4,569.8l9.8,3.8c-18.7,24.6-18.7,49.4-18.7,49.4h-14.9C857.6,598.8,881.4,569.8,881.4,569.8z"/>
				<path d="M865.7,430.2c0-7,5.6-12.6,12.6-12.6H942c7,0,12.6,5.6,12.6,12.6l0,0c0,7-5.6,12.6-12.6,12.6h-63.8
					C871.3,442.7,865.7,437,865.7,430.2L865.7,430.2z"/>
			</g>
		</g>
	</g>
</g>
</svg>
