<?xml version="1.0" encoding="utf-8"?>
<!-- Generator: Adobe Illustrator 26.0.2, SVG Export Plug-In . SVG Version: 6.00 Build 0)  -->
<svg version="1.1" id="Слой_1" xmlns:vectornator="http://vectornator.io"
	 xmlns="http://www.w3.org/2000/svg" xmlns:xlink="http://www.w3.org/1999/xlink" x="0px" y="0px" width="1423.6px" height="1099px"
	 viewBox="0 0 1423.6 1099" style="enable-background:new 0 0 1423.6 1099;" xml:space="preserve">
<style type="text/css">
	.st0{fill:#FECB8A;}
	.st1{fill:#5146A6;stroke:#000000;stroke-width:17.4185;stroke-linejoin:round;stroke-miterlimit:29.0308;}
	.st2{fill:#FFCEBF;stroke:#000000;stroke-width:17.4185;stroke-linejoin:round;stroke-miterlimit:29.0308;}
	.st3{fill:#3C3386;}
	.st4{fill:none;stroke:#000000;stroke-width:17.4185;stroke-linejoin:round;stroke-miterlimit:29.0308;}
	.st5{fill:#FFCA56;}
	.st6{fill:#FFAF01;}
	.st7{fill:#FFCEBF;}
	.st8{fill:#FFB8A1;}
	.st9{fill:#FFFFFF;}
	.st10{fill:#FFA101;stroke:#000000;stroke-width:17.4185;stroke-linejoin:round;stroke-miterlimit:29.0308;}
	.st11{fill:#F3E7CA;}
	.st12{fill:none;stroke:#000000;stroke-width:2.4179;stroke-linejoin:round;stroke-miterlimit:29.0308;}
	.st13{fill:#DBCDAA;stroke:#000000;stroke-width:17.4185;stroke-linejoin:round;stroke-miterlimit:29.0308;}
</style>
<g id="Слой-1" vectornator:layerName="–°–ї–Њ–є 1">
	<g vectornator:layerName="–У—А—Г–њ–њ–∞ 40">
		<path vectornator:layerName="–Ъ—А–Є–≤–∞—П 47" class="st0" d="M711.9,137.5c-380,0-688.2,299.1-688.2,668.2
			c0,100.4,22.9,195.5,63.7,280.9h1248.8c40.8-85.4,63.7-180.5,63.7-280.9C1399.9,436.6,1091.9,137.5,711.9,137.5z"/>
		<g vectornator:layerName="–У—А—Г–њ–њ–∞ 45">
			<path vectornator:layerName="–Ъ—А–Є–≤–∞—П 48" class="st1" d="M743.1,594c0,0-218.5,11.5-289.8,137.3
				c-27.6,48.6-35.3,142-35.3,142l-85.8-204.9l-151.6-10c-12.7,190.7,151.6,429.6,151.6,429.6l780.2-1.6
				c0,0,108.1-422.9-192.1-471.5L743.1,594z"/>
			<path vectornator:layerName="–Ъ—А–Є–≤–∞—П 49" class="st2" d="M175.1,548.2c-67.1,108,7.5,158.9,60.7,164.2
				c59.5,5.9,112-2.9,130.4-43.9c6.9-15.5,11.7-50.6,7.4-74.5c-13.3-73-79.5-84.6-79.5-84.6L175.1,548.2z"/>
			<path vectornator:layerName="–Ъ—А–Є–≤–∞—П 50" class="st3" d="M914.6,782.6l-227.3,303.9l231.8-9.7
				L914.6,782.6z"/>
			<path vectornator:layerName="–Ъ—А–Є–≤–∞—П 51" class="st4" d="M913.8,775.2v304.2"/>
			<path vectornator:layerName="–Ъ—А–Є–≤–∞—П 52" class="st4" d="M580,775.2l6,306.3"/>
			<path vectornator:layerName="–Ю–≤–∞–ї 22" class="st3" d="M633.9,652.6c0-79,68.4-143.1,152.9-143.1
				c84.4,0,152.9,64.1,152.9,143.1c0,79-68.4,143.1-152.9,143.1C702.3,795.6,633.9,731.6,633.9,652.6z"/>
			<path vectornator:layerName="–Ъ—А–Є–≤–∞—П 53" class="st5" d="M626.2,16c-62.3,53.3-98.4,121-101.5,185.7
				c-4.5,94.9,44.8,180.4,44.8,180.4s26.1-115.9,2,40.4C558.3,507.6,584.1,559.4,623,612c32.5,44,70.6,96.5,136.9,102.1
				c108.7,9.2,183.4-98.9,196.4-183.6c10.6-68.9-14.6-118.7-16.6-169.1c-0.5-13.1,7.1,39.4,10.2,16.1c1.1-8.8,80.7-64.4,27.5-192.4
				c-41.8-100.7-208-78.6-236.3-98.2c-28.3-19.6-40.5-78.2-40.5-78.2l-38,52.8L626.2,16z"/>
			<path vectornator:layerName="–Ъ—А–Є–≤–∞—П 54" class="st6" d="M637.6,79.5
				c-62.3,53.3-110.1,136.6-113.2,201.3c-0.1,3.2,9.4,78,16.6,69.8c10.6,52.4,46,0.9,39,46.7c-9.6,62-17.5,82,0,125.5
				c26.6,66.3,99.1,129.8,187.2,129.8c112.7,0,188.1-90.3,189.3-174.8c0.5-34.1,4.2-3.6-8.2-50.7c-5.2-19.6,4.2-37.9,5.7-49.1
				c0.8-6.3,41.9-44.2,41.5-107.3c-3.5-9.2-2.7-12.6-6.6-22c-41.8-100.7-178.4-89.7-237.1-96.2C656.5,142,637.6,79.5,637.6,79.5z"/>
			<path vectornator:layerName="–Ъ—А–Є–≤–∞—П 61" class="st4" d="M702.4,8.7c0,0-26.5,15.4-36.2,55
				c-31.6-21.3-40-47.6-40-47.6s-89.6,85.5-101.4,185.6C512.1,308.5,557,414,570.1,397.3c16.5-21.1,7.2-24,1.4,25.2
				c-18.6,157.1,111.7,291.6,195.7,291.6c51.5,0,222.1-53.7,181.1-287.1c-15.2-86.6-13.1,63.1,1.6-49.5
				c1.1-8.8,80.6-64.3,27.5-192.3C938.5,91.6,805.6,100.5,756.2,90S702.4,8.7,702.4,8.7z"/>
			<path vectornator:layerName="–Ю–≤–∞–ї 24" class="st2" d="M883.4,397.3c0-30.4,25.2-55,56.2-55s56.2,24.6,56.2,55
				s-25.2,55-56.2,55S883.4,427.6,883.4,397.3z"/>
			<path vectornator:layerName="–Ю–≤–∞–ї 23" class="st2" d="M541,397.3c0-30.4,25.2-55,56.2-55s56.2,24.6,56.2,55
				s-25.2,55-56.2,55S541,427.6,541,397.3z"/>
			<path vectornator:layerName="–Ъ—А–Є–≤–∞—П 56" class="st7" d="M686.6,211c-7.3-0.4-58.6,38.6-67.6,73.9
				c-22.3,87.6-2.8,226.4-2.8,226.4c27.1,29,61.2,24.6,95.6,29.4c98.5,13.6,205.3-30,205.3-30C951,292.4,878.7,222,849.4,212.3
				c-29.3-9.8-44.6,33.5-85.3,33.2C723.4,245.2,712,212.3,686.6,211z"/>
			<path vectornator:layerName="–Ъ—А–Є–≤–∞—П 57" class="st8" d="M841,210.9c-23.1,1.7-39.3,34.8-74.9,34.6
				c-40.7-0.3-52.1-33.2-77.5-34.5c-5.1-0.3-31.6,18.9-50.2,42.5c112,84.3,204.5,35.7,252.9-5c-14.3-21.7-29.7-32.7-39.9-36.1
				C847.7,211.1,844.3,210.7,841,210.9z"/>
			<path vectornator:layerName="–Ъ—А–Є–≤–∞—П 58" class="st4" d="M686.6,211c-7.3-0.4-58.6,38.6-67.6,73.9
				c-22.3,87.6-2.8,226.4-2.8,226.4c27.2,29,80.3-6.5,114.7-1.8c98.4,13.5,186.2,1.1,186.2,1.1C951,292.4,878.7,222,849.4,212.3
				c-29.3-9.8-44.6,33.5-85.3,33.2C723.4,245.2,712,212.3,686.6,211z"/>
			<path vectornator:layerName="–Ю–≤–∞–ї 25" class="st2" d="M706.7,540.6c0-21.3,28.6-38.5,64-38.5
				c35.3,0,64,17.2,64,38.5s-28.6,38.5-64,38.5C735.4,579.1,706.7,561.9,706.7,540.6z"/>
			<path vectornator:layerName="–Ю–≤–∞–ї 26" d="M657.2,408.3c0-18.7,16.5-33.8,36.9-33.8c20.4,0,36.9,15.1,36.9,33.8
				s-22-14.5-42.3-14.5C668.2,393.8,657.2,427,657.2,408.3z"/>
			<path vectornator:layerName="–Ю–≤–∞–ї 27" d="M813.3,408.3c0-18.7,16.5-33.8,36.9-33.8c20.4,0,36.9,15.1,36.9,33.8
				s-22-14.5-42.3-14.5S813.3,427,813.3,408.3z"/>
			<path vectornator:layerName="–Ю–≤–∞–ї 28" d="M646.9,334.7c-2.6-9.2,16.2-22.7,42.2-30.2c25.9-7.4,49.1-6,51.7,3.2
				c2.6,9.2-16.2,22.7-42.2,30.2C672.7,345.4,649.5,343.9,646.9,334.7z"/>
			<path vectornator:layerName="–Ю–≤–∞–ї 29" d="M813.4,316.8c2.5-9.3,25.6-11.1,51.7-4.1c26,7,45.1,20.2,42.7,29.5
				c-2.5,9.3-25.6,11.1-51.7,4.1C830,339.3,810.9,326.1,813.4,316.8z"/>
			<path vectornator:layerName="–Ю–≤–∞–ї 30" class="st8" d="M633.9,433.3c0-3.5,10.4-6.3,23.3-6.3
				c12.9,0,23.3,2.8,23.3,6.3c0,3.5-10.4,6.3-23.3,6.3C644.3,439.7,633.9,436.8,633.9,433.3z"/>
			<path vectornator:layerName="–Ю–≤–∞–ї 31" class="st8" d="M860.1,433.3c0-3.5,10.4-6.3,23.3-6.3
				c12.8,0,23.3,2.8,23.3,6.3c0,3.5-10.4,6.3-23.3,6.3C870.6,439.7,860.1,436.8,860.1,433.3z"/>
			<path vectornator:layerName="–Я—А—П–Љ–Њ—Г–≥–Њ–ї—М–љ–Є–Ї 9" d="M730.9,607h10.6v105.8
				h-10.6V607z"/>
			<path vectornator:layerName="–Я—А—П–Љ–Њ—Г–≥–Њ–ї—М–љ–Є–Ї 10" d="M761.9,639.8h10.6V715
				h-10.6V639.8z"/>
			<path vectornator:layerName="–Я—А—П–Љ–Њ—Г–≥–Њ–ї—М–љ–Є–Ї 11" d="M792.6,608.3h10.6
				v105.8h-10.6V608.3z"/>
			<path vectornator:layerName="–Я—А—П–Љ–Њ—Г–≥–Њ–ї—М–љ–Є–Ї 13" class="st9" d="
				M22.4,353.2c-0.5-14.1,10.6-26,24.7-26.5l188-6.6c14.1-0.5,26,10.6,26.5,24.7l13.7,388.1c0.5,14.1-10.6,26-24.7,26.5l-188,6.6
				c-14.1,0.5-26-10.6-26.5-24.7L22.4,353.2z"/>
			<path vectornator:layerName="–Ъ—А–Є–≤–∞—П 59" class="st0" d="M266,434.3c-29.1,25.6-67.5,47.8-115.9,47.8
				c-45.9,0-77.2-36.8-123.3-40.9l7.5,213.6c64-14.2,159.4-25.4,239.6,5.4L266,434.3z"/>
			<path vectornator:layerName="–Я—А—П–Љ–Њ—Г–≥–Њ–ї—М–љ–Є–Ї 14" class="st4" d="
				M22.4,353.2c-0.5-14.1,10.6-26,24.7-26.5l188-6.6c14.1-0.5,26,10.6,26.5,24.7l13.7,388.1c0.5,14.1-10.6,26-24.7,26.5l-188,6.6
				c-14.1,0.5-26-10.6-26.5-24.7L22.4,353.2z"/>
			<path vectornator:layerName="–Ю–≤–∞–ї 32" class="st7" d="M238.1,522.9c6.4-28.5,25-43.5,74.5-23.7
				c31.8,12.7,59.1,76.1,52.7,104.6c-6.4,28.5-10.3,64.7-33.1,64.7c-17.1,0-56.7-73-59.5-92.4C269.8,556.5,230.4,557.4,238.1,522.9z
				"/>
			<path vectornator:layerName="–Ю–≤–∞–ї 33" class="st4" d="M343.9,639.5c-51.7,33.3-69.5-52.1-71.2-63.5
				c-2.9-19.6-42.3-18.7-34.6-53.1c6.4-28.5,28.8-51.2,74.5-23.7c40.9,24.6,62.7,80.1,62.7,125.3"/>
			<path vectornator:layerName="–Ъ—А–Є–≤–∞—П 60" class="st10" d="M725.3,452.6c-3.7,0.2-7.5,0.9-11.4,1.8
				c-57.8,14.2-127.7,39.7-127.7,39.7s41,87.7,122.2,46.7c15.1-7.6,55.8-31.2,55.8-31.2s32.9,23.5,47.9,31.2
				c81.2,41,136.2-46.7,136.2-46.7s-70-25.5-127.7-39.7c-22.4-5.5-41.5,1.4-53.3,14.2C757.4,458.1,742.7,451.5,725.3,452.6z"/>
			<path vectornator:layerName="–Я—А—П–Љ–Њ—Г–≥–Њ–ї—М–љ–Є–Ї 15" d="M101.5,337.5
				c-0.3-8.1,6.1-14.9,14.2-15.1l68.1-2.3c8.1-0.3,14.9,6.1,15.1,14.2l0,0c0.3,8.1-6.1,14.9-14.2,15.1l-68.1,2.3
				C108.5,351.9,101.7,345.6,101.5,337.5L101.5,337.5z"/>
		</g>
		<g vectornator:layerName="–У—А—Г–њ–њ–∞ 22">
			<path vectornator:layerName="–Ъ—А–Є–≤–∞—П 47" class="st6" d="M1106.5,519.5c0,0,2.4,36-10.3,89.9
				c-10.6,44.9-8.8,66.7-8.8,66.7s-29.6,49.6-35.9,80.3c-7.6,37.2-3.1,92.7-3.8,132.5c-1.7,88.4,0.9,95.5,0,133.1
				c-0.9,37.6,1.3,55.4,25.9,58.5c20.6,2.6,103.8,3.2,128.5,0c24.7-3.2,26.8-20.9,25.9-58.5c-0.9-37.6,1.7-44.7,0-133.1
				c-0.7-39.8,3.8-95.3-3.8-132.5c-6.3-30.7-36-80.3-36-80.3s1.9-21.7-8.7-66.7c-12.7-53.9-10.4-89.9-10.4-89.9H1106.5z"/>
			<path vectornator:layerName="–Ъ—А–Є–≤–∞—П 19" class="st11" d="M1138.5,782.7c-23.4,0-43.3,12.3-51.2,29.5
				l-39.8,0.5l0.3,189.9l43.7,1c9.6,13.4,26.9,22.4,47,22.4c19.1,0,35.9-8.1,45.7-20.4l43.4,1l2-196.4l-40.5,0.5
				C1180.9,794.3,1161.3,782.7,1138.5,782.7z"/>
			<path vectornator:layerName="–Ъ—А–Є–≤–∞—П 16" class="st4" d="M1106.5,519.5c0,0,2.4,36-10.3,89.9
				c-10.6,44.9-8.8,66.7-8.8,66.7s-29.6,49.6-35.9,80.3c-7.6,37.2-3.1,92.7-3.8,132.5c-1.7,88.4,0.9,95.5,0,133.1
				c-0.9,37.6,1.3,55.4,25.9,58.5c20.6,2.6,103.8,3.2,128.5,0c24.7-3.2,26.8-20.9,25.9-58.5c-0.9-37.6,1.7-44.7,0-133.1
				c-0.7-39.8,3.8-95.3-3.8-132.5c-6.3-30.7-36-80.3-36-80.3s1.9-21.7-8.7-66.7c-12.7-53.9-10.4-89.9-10.4-89.9H1106.5z"/>
			<path vectornator:layerName="–Я—А—П–Љ–Њ—Г–≥–Њ–ї—М–љ–Є–Ї 2" class="st12" d="
				M1098.4,522.7c0-5,4-9,9-9h60.8c5,0,9,4,9,9l0,0c0,5-4,9-9,9h-60.8C1102.4,531.7,1098.4,527.7,1098.4,522.7L1098.4,522.7z"/>
			<path vectornator:layerName="–Я—А—П–Љ–Њ—Г–≥–Њ–ї—М–љ–Є–Ї 3" class="st13" d="
				M1106.8,488.9h62.3V525h-62.3V488.9z"/>
			<path vectornator:layerName="–Ъ—А–Є–≤–∞—П 17" class="st9" d="M1126.9,531.7h10.9
				c-2,104.1-11.1,157.3-11.1,157.3l-21.4-1.7C1118.8,629.9,1126.9,531.7,1126.9,531.7z"/>
			<path vectornator:layerName="–Ъ—А–Є–≤–∞—П 18" class="st9" d="M1101.9,699.6l12.3,4.7
				c-23.4,30.7-23.4,61.7-23.4,61.7h-18.6C1072.1,735.8,1101.9,699.6,1101.9,699.6z"/>
			<path vectornator:layerName="–Я—А—П–Љ–Њ—Г–≥–Њ–ї—М–љ–Є–Ї 5" d="M1082.2,525
				c0-8.7,7-15.7,15.7-15.7h79.8c8.7,0,15.7,7,15.7,15.7l0,0c0,8.7-7,15.7-15.7,15.7h-79.8C1089.2,540.7,1082.2,533.6,1082.2,525
				L1082.2,525z"/>
		</g>
		<path vectornator:layerName="–Я—А—П–Љ–Њ—Г–≥–Њ–ї—М–љ–Є–Ї 12" d="M0,1077.3h1423.6v21.7H0
			V1077.3z"/>
	</g>
</g>
</svg>
